<?xml version="1.0" encoding="UTF-8" standalone="no"?>
<!-- Generator: Adobe Illustrator 13.0.1, SVG Export Plug-In . SVG Version: 6.00 Build 14948)  -->

<svg
   xmlns:dc="http://purl.org/dc/elements/1.1/"
   xmlns:cc="http://creativecommons.org/ns#"
   xmlns:rdf="http://www.w3.org/1999/02/22-rdf-syntax-ns#"
   xmlns:svg="http://www.w3.org/2000/svg"
   xmlns="http://www.w3.org/2000/svg"
   xmlns:sodipodi="http://sodipodi.sourceforge.net/DTD/sodipodi-0.dtd"
   xmlns:inkscape="http://www.inkscape.org/namespaces/inkscape"
   version="1.1"
   id="Layer_1"
   x="0px"
   y="0px"
   width="1000px"
   height="637.5px"
   viewBox="0 0 1000 637.5"
   enable-background="new 0 0 1000 637.5"
   xml:space="preserve"
   inkscape:version="0.47 r22583"
   sodipodi:docname="US_Presidential_Flag_1902.svg"><metadata
   id="metadata489"><rdf:RDF><cc:Work
       rdf:about=""><dc:format>image/svg+xml</dc:format><dc:type
         rdf:resource="http://purl.org/dc/dcmitype/StillImage" /></cc:Work></rdf:RDF></metadata><defs
   id="defs487"><inkscape:perspective
     sodipodi:type="inkscape:persp3d"
     inkscape:vp_x="0 : 318.75 : 1"
     inkscape:vp_y="0 : 1000 : 0"
     inkscape:vp_z="1000 : 318.75 : 1"
     inkscape:persp3d-origin="500 : 212.5 : 1"
     id="perspective491" /></defs><sodipodi:namedview
   pagecolor="#ffffff"
   bordercolor="#666666"
   borderopacity="1"
   objecttolerance="10"
   gridtolerance="10"
   guidetolerance="10"
   inkscape:pageopacity="0"
   inkscape:pageshadow="2"
   inkscape:window-width="1280"
   inkscape:window-height="1004"
   id="namedview485"
   showgrid="false"
   inkscape:zoom="2.0941453"
   inkscape:cx="506.5291"
   inkscape:cy="130.3855"
   inkscape:window-x="-8"
   inkscape:window-y="-8"
   inkscape:window-maximized="1"
   inkscape:current-layer="g47" />
<rect
   fill="#212F64"
   width="1000"
   height="637.5"
   id="rect3"
   style="fill:#0f1647;fill-opacity:1" />
<circle
   fill="none"
   cx="501.104"
   cy="144.339"
   r="63.25"
   id="circle5" />
<g
   id="g7">
	<line
   fill="none"
   stroke="#F9ED33"
   stroke-width="2.3"
   x1="501.104"
   y1="81.089"
   x2="501.104"
   y2="207.589"
   id="line9" />
	<line
   fill="none"
   stroke="#F9ED33"
   stroke-width="2.3"
   x1="437.854"
   y1="144.339"
   x2="564.354"
   y2="144.339"
   id="line11" />
	<line
   fill="none"
   stroke="#F9ED33"
   stroke-width="2.3"
   x1="438.815"
   y1="155.323"
   x2="563.393"
   y2="133.356"
   id="line13" />
	<line
   fill="none"
   stroke="#F9ED33"
   stroke-width="2.3"
   x1="441.668"
   y1="165.972"
   x2="560.54"
   y2="122.708"
   id="line15" />
	<line
   fill="none"
   stroke="#F9ED33"
   stroke-width="2.3"
   x1="446.328"
   y1="175.964"
   x2="555.879"
   y2="112.714"
   id="line17" />
	<line
   fill="none"
   stroke="#F9ED33"
   stroke-width="2.3"
   x1="452.651"
   y1="184.997"
   x2="549.557"
   y2="103.683"
   id="line19" />
	<line
   fill="none"
   stroke="#F9ED33"
   stroke-width="2.3"
   x1="460.447"
   y1="192.792"
   x2="541.761"
   y2="95.887"
   id="line21" />
	<line
   fill="none"
   stroke="#F9ED33"
   stroke-width="2.3"
   x1="469.479"
   y1="199.116"
   x2="532.729"
   y2="89.564"
   id="line23" />
	<line
   fill="none"
   stroke="#F9ED33"
   stroke-width="2.3"
   x1="479.472"
   y1="203.775"
   x2="522.736"
   y2="84.904"
   id="line25" />
	<line
   fill="none"
   stroke="#F9ED33"
   stroke-width="2.3"
   x1="490.12"
   y1="206.629"
   x2="512.087"
   y2="82.05"
   id="line27" />
	<line
   fill="none"
   stroke="#F9ED33"
   stroke-width="2.3"
   x1="438.815"
   y1="133.356"
   x2="563.393"
   y2="155.323"
   id="line29" />
	<line
   fill="none"
   stroke="#F9ED33"
   stroke-width="2.3"
   x1="441.668"
   y1="122.708"
   x2="560.54"
   y2="165.972"
   id="line31" />
	<line
   fill="none"
   stroke="#F9ED33"
   stroke-width="2.3"
   x1="446.328"
   y1="112.714"
   x2="555.879"
   y2="175.964"
   id="line33" />
	<line
   fill="none"
   stroke="#F9ED33"
   stroke-width="2.3"
   x1="452.651"
   y1="103.683"
   x2="549.557"
   y2="184.997"
   id="line35" />
	<line
   fill="none"
   stroke="#F9ED33"
   stroke-width="2.3"
   x1="460.447"
   y1="95.887"
   x2="541.761"
   y2="192.792"
   id="line37" />
	<line
   fill="none"
   stroke="#F9ED33"
   stroke-width="2.3"
   x1="469.479"
   y1="89.564"
   x2="532.729"
   y2="199.116"
   id="line39" />
	<line
   fill="none"
   stroke="#F9ED33"
   stroke-width="2.3"
   x1="479.472"
   y1="84.904"
   x2="522.736"
   y2="203.775"
   id="line41" />
	<line
   fill="none"
   stroke="#F9ED33"
   stroke-width="2.3"
   x1="490.12"
   y1="82.05"
   x2="512.087"
   y2="206.629"
   id="line43" />
</g>
<circle
   fill="#212F64"
   cx="501.104"
   cy="144.339"
   r="46"
   id="circle45"
   style="fill:#0f1647;fill-opacity:1" />
<g
   id="g47">
	<path
   fill="#FEE354"
   stroke="#010101"
   stroke-width="0.4551"
   d="M380.742,498.911c0,0,21.009-4.4,16.122-18.246   c-0.812-2.447,31.761-11.568,33.55-11.24c1.63,0.326-5.697-9.771-8.629-11.404c-2.771-1.781-12.38,7.502-26.549,7.502   c-0.164,0-8.796-22.973-21.34-3.1C370.969,467.147,380.742,498.911,380.742,498.911"
   id="path49" />
	<path
   fill="#FEE354"
   stroke="#010101"
   stroke-width="0.4551"
   d="M625.691,496.788c0,0-21.011-4.562-15.954-18.242   c0.646-2.439-31.934-11.566-33.723-11.238c-1.625,0.328,5.707-9.77,8.637-11.562c2.768-1.627,12.375,7.492,26.544,7.492   c0.164,0,10.426-25.406,23.611-10.424C638.725,457.212,625.691,496.788,625.691,496.788"
   id="path51" />
	<path
   d="M475.854,471.546c0,0-29.965,21.002-32.411,49.02c0,0.979,5.374-0.648,8.633-2.113c0.328-0.166-2.445,7.166-0.976,15.791   c0,0.494,5.376-0.975,8.465-3.738c0.492-0.332-1.3,9.279,2.773,16.607c0.164,0.322,6.513-2.273,8.468-4.561   c0.325-0.482,0.489,12.215,7.004,17.924c0.325,0.318,6.023-3.1,10.585-9.783c0.167-0.322,3.902,9.783,12.705,15.807   c0.642,0.318,9.442-6.023,14.818-17.756c0.164-0.324,6.515,7.82,12.052,9.613c0.328,0,4.079-2.773,6.352-14.498   c0.17-0.49,3.75,3.414,8.31,3.904c0.483,0,3.745-5.854,4.234-15.637c0-0.48,4.72,2.934,9.768,1.955   c0.33,0,1.303-9.605-0.325-17.418c-0.155-0.658,3.42,2.604,7.826,1.789c0.316,0-0.166-29.16-37.625-52.93   c-0.979-0.656-25.409,13.676-25.409,13.676"
   id="path53" />
	<path
   fill="#FFFFFF"
   stroke="#FFFFFF"
   stroke-width="0.1352"
   d="M474.716,474.798c0,0-24.107,17.92-28.826,42.998   c-0.164,0.814,20.191-3.908,39.414-38.928c0.488-0.814-3.099-1.947-4.233-1.297c-1.143,0.807-19.384,23.125-28.828,32.732   c-0.652,0.652,16.77-24.105,26.871-35.018C479.603,474.638,474.716,474.798,474.716,474.798"
   id="path55" />
	<path
   fill="#FFFFFF"
   stroke="#FFFFFF"
   stroke-width="0.1352"
   d="M463.316,510.796c0,0-6.518,5.703-8.959,6.846   c-1.139,0.312-2.443,9.932-1.139,12.863c0.324,0.98,23.938-8.479,40.058-48.377c0.328-0.814-3.742-1.627-4.23-0.814   c-0.483,0.814-20.034,24.76-31.594,44.305C457.124,526.101,463.316,510.796,463.316,510.796"
   id="path57" />
	<path
   fill="#FFFFFF"
   stroke="#FFFFFF"
   stroke-width="0.1352"
   d="M474.226,518.452c0,0-7.328,7.98-11.887,10.908   c-0.492,0.166-0.652,12.871,1.628,14.172c0.325,0.166,22.964-9.934,32.738-57.818c0-0.328-0.492-2.445-0.492-2.934   c0-0.324-19.705,38.934-28.338,52.115C467.711,535.388,474.226,518.452,474.226,518.452"
   id="path59" />
	<path
   fill="#FFFFFF"
   stroke="#FFFFFF"
   stroke-width="0.1352"
   d="M484.486,527.729c0,0-8.47,11.398-11.073,12.705   c-0.492,0.328,0,12.219,5.05,16.615c0.322,0.164,21.499-13.191,21.656-69.713c0-0.484-0.816-0.326-0.816-0.326   s-11.716,42.182-18.075,62.543C481.07,550.204,484.486,527.729,484.486,527.729"
   id="path61" />
	<path
   fill="#FFFFFF"
   stroke="#FFFFFF"
   stroke-width="0.1352"
   d="M499.145,521.384c0,0-2.281,15.143-9.443,27.523   c-0.167,0.322,7.493,12.863,11.399,14.496c0.642,0.322,8.956-6.678,13.026-16.941c0.167-0.486-9.442-14.162-11.882-32.738   c-0.17-0.816,0.152,29.48-1.145,43.168c-0.164,0.975-1.956-23.293-1.956-33.723C499.145,522.687,499.145,521.384,499.145,521.384"
   id="path63" />
	<path
   fill="#FFFFFF"
   stroke="#FFFFFF"
   stroke-width="0.1352"
   d="M519.015,476.431c0,0,13.188,32.408,43.162,39.408   c0.482,0-6.84-30.939-35.178-46.902c-0.333-0.162-1.146,4.564-0.65,5.215c0.483,0.486,23.776,25.082,25.888,30.621   c0.33,0.809-17.265-16.131-28.657-29.158C523.412,475.286,519.015,476.431,519.015,476.431"
   id="path65" />
	<path
   fill="#FFFFFF"
   stroke="#FFFFFF"
   stroke-width="0.1352"
   d="M540.673,508.675c0,0,9.938,6.355,13.036,7.008   c0.485,0,2.284,13.033,1.297,16.119c-0.164,0.654-29.475-1.947-42.829-52.934c-0.16-0.322,4.07-0.154,7.815,5.215   c0.479,0.816,6.84,11.561,10.916,14.498c1.142,0.652,5.209,12.215,17.913,25.406C549.305,524.636,540.673,508.675,540.673,508.675"
   id="path67" />
	<path
   fill="#FFFFFF"
   stroke="#FFFFFF"
   stroke-width="0.1352"
   d="M530.743,520.888c0,0,8.63,8.15,13.353,9.779   c0.812,0.32,0.327,9.934-2.438,13.842c-0.164,0.33-29.641-10.1-33.718-63.521c0-0.486,1.629-0.16,1.951,0   c0.334,0.326,4.072,19.873,14.338,31.602c0.645,0.654,4.07,16.127,12.374,22.639c0.491,0.494-5.694-9.449-5.694-13.201   C530.908,520.728,530.743,520.888,530.743,520.888"
   id="path69" />
	<path
   fill="#FFFFFF"
   stroke="#FFFFFF"
   stroke-width="0.1352"
   d="M520.317,528.548c0,0,5.862,9.121,12.049,14.172   c0.322,0.322-1.947,9.279-4.879,12.213c-0.488,0.326-24.432-14.332-24.596-69.219c0-0.646,1.297-2.117,1.953-2.283   c0.489,0,3.581,28.994,10.75,37.785c0.324,0.498,2.938,17.432,8.95,24.924c0.498,0.646-4.553-13.027-4.073-16.455   C520.472,528.874,520.317,528.548,520.317,528.548"
   id="path71" />
	<path
   fill="#FFFFFF"
   stroke="#6C5035"
   stroke-width="0.2276"
   d="M458.102,317.309h89.089c0,0,5.21,7.165,5.21,12.541   c0,0.162-96.252,0-96.252,0S455.174,322.683,458.102,317.309"
   id="path73" />
	<path
   stroke="#000000"
   stroke-width="0.2276"
   d="M551.923,401.185c0,0,15.466,18.238,15.62,0.814c0,0,6.03,5.703,10.598,3.094   c2.608-1.305,2.271-7.975,2.271-7.975s5.058,4.066,9.131,1.785c3.082-1.785,2.113-9.121,2.113-9.121s5.698,4.396,8.954,1.791   c3.587-2.77,1.467-9.441,1.467-9.441s6.19,3.092,9.442,0.812c2.932-1.955,1.792-9.447,1.792-9.447s7.169,1.791,9.777-2.117   c1.956-3.092-0.327-7.488-0.327-7.488s5.54,2.275,8.47-1.469c2.771-3.582,0.161-9.605,0.161-9.605s4.986,0.247,6.838-1.797   c2.49-2.741-0.809-9.443-0.809-9.443s8.304-0.325,9.437-5.704c1.31-5.533-3.252-9.771-3.252-9.771s7.498-0.812,7.981-6.026   c0.482-5.209-5.701-9.12-5.701-9.12s7.82-1.465,8.31-7.487c0.488-6.356-4.724-8.146-4.724-8.146s8.144-3.096,8.144-8.472   c0-5.698-6.84-8.304-6.84-8.304s9.118-3.584,8.638-8.96c-0.339-4.233-5.707-5.698-5.707-5.698s7.984-5.215,6.671-9.938   c-0.806-3.745-6.504-5.212-6.504-5.212s8.466-4.885,8.626-10.099c0.168-1.953-0.983-5.048-0.983-5.048s17.437-7.817,19.06-16.289   c0.816-4.393-1.623-6.837-1.623-6.837s13.674-9.936,11.232-17.428c-0.812-2.281-1.79-2.117-1.79-2.117s7.327-4.398,13.684-13.847   c25.898-38.92-165.32,57.984-122.967,103.589c0.163,0.324-3.748,12.537,0.649,26.873c0.168,0.653-4.069,2.768-4.884,7.005   c0,0.482-2.277,0.975-3.42,3.583c-0.16,0.325-6.843,2.605-8.307,9.279c-0.164,0.813-6.676-0.649-11.229,0.813"
   id="path75" />
	<path
   stroke="#000000"
   stroke-width="0.2276"
   d="M450.123,401.185c0,0-15.308,18.238-15.472,0.814c0,0-6.026,5.703-10.589,3.094   c-2.605-1.305-2.438-7.975-2.438-7.975s-5.051,4.066-8.96,1.785c-3.098-1.785-2.277-9.121-2.277-9.121s-5.544,4.396-8.803,1.791   c-3.578-2.77-1.461-9.441-1.461-9.441s-6.189,3.092-9.612,0.812c-2.931-1.955-1.625-9.447-1.625-9.447s-7.165,1.791-9.771-2.117   c-2.119-3.092,0.161-7.488,0.161-7.488s-5.379,2.275-8.307-1.469c-2.772-3.582-0.324-9.605-0.324-9.605s-4.861,0.19-6.68-1.797   c-2.498-2.727,0.814-9.443,0.814-9.443s-8.308-0.325-9.61-5.704c-1.306-5.533,3.423-9.771,3.423-9.771s-7.495-0.812-7.981-6.026   c-0.486-5.209,5.536-9.12,5.536-9.12s-7.817-1.465-8.143-7.487c-0.486-6.356,4.564-8.146,4.564-8.146s-7.984-3.096-7.984-8.472   c0-5.698,6.679-8.304,6.679-8.304s-8.96-3.584-8.474-8.96c0.328-4.233,5.707-5.698,5.707-5.698s-7.985-5.215-6.846-9.938   c0.978-3.745,6.679-5.212,6.679-5.212s-8.635-4.885-8.796-10.099c0-1.953,1.139-5.048,1.139-5.048s-17.428-7.817-19.05-16.289   c-0.816-4.393,1.464-6.837,1.464-6.837s-13.683-9.936-11.077-17.428c0.656-2.281,1.792-2.117,1.792-2.117   s-7.328-4.398-13.683-13.847c-25.893-38.92,165.315,57.984,122.967,103.589c-0.164,0.324,3.745,12.537-0.649,26.873   c-0.164,0.653,3.908,2.768,4.723,7.005c0.16,0.482,2.444,0.975,3.587,3.583c0,0.325,6.673,2.605,8.298,9.279   c0.166,0.813,6.683-0.649,11.08,0.813"
   id="path77" />
	<path
   stroke="#000000"
   stroke-width="0.2276"
   d="M448.653,419.261c0,0-6.837,2.117-7.326,5.049c0,0.656-6.84,2.121-7.651,5.867   c-0.167,0.814-5.865,3.742-5.865,5.863c0,0.977-4.89,3.416-4.397,8.953c0,0.816-4.729,1.631-3.584,11.246   c0,0.645-2.117,4.232-1.303,6.184c0.158,0.484,2.119,0.979,3.909,0.484c0.649-0.156,0,2.615,1.141,3.426   c0.486,0.168,3.096,1.143,5.049,0.49c0.325-0.168-0.166,3.252,0.65,3.746c0.491,0.16,6.679,1.137,13.519-0.66   c0.321-0.158,7.654-0.322,10.261-4.387c0.327-0.656,13.521-5.705,16.288-18.246c0-0.326-16.452-5.049-16.452-5.049"
   id="path79" />
	<path
   stroke="#000000"
   stroke-width="0.2276"
   d="M554.678,418.12c0,0,6.849,1.797,7.66,4.725c0,0.65,6.84,1.797,7.814,5.535   c0.164,0.814,6.193,3.262,6.193,5.539c0.157,0.98,5.209,3.098,4.887,8.631c0.164,0.818,4.72,1.469,4.237,11.076   c0,0.652,2.275,4.076,1.625,6.027c-0.17,0.49-2.12,1.141-3.909,0.654c-0.647-0.164,0.163,2.766-1.143,3.58   c-0.321,0.164-2.931,1.307-4.717,0.646c-0.501-0.16,0.322,3.266-0.656,3.912c-0.488,0.168-6.518,1.463-13.519,0   c-0.319-0.16-7.663,0.168-10.423-3.912c-0.328-0.482-17.098-4.391-20.526-16.771c0-0.322,19.55-6.354,19.55-6.354"
   id="path81" />
	<path
   stroke="#000000"
   stroke-width="0.2276"
   d="M531.224,446.95c0,0,0.826,14.17-3.902,14.492c-0.489,0,2.119,9.607-4.562,13.844   c-0.49,0.328-2.442-1.135-2.768-2.119c-0.167-0.482-2.114,4.887-4.397,5.701c-0.48,0.17-2.602-1.297-2.929-2.762   c-0.167-0.652-0.167,4.559-2.938,5.537c-0.482,0.164-2.77-1.307-2.77-1.963c0-0.643-2.444,6.846-5.858,7.828   c-3.585-1.469-6.026-8.471-6.026-7.828c0,0.656-2.12,2.127-2.608,1.963c-2.765-0.979-4.234-6.189-4.393-5.537   c-0.322,1.465-2.441,2.932-2.934,2.762c-2.28-0.814-4.231-6.184-4.397-5.701c-0.326,0.984-2.279,2.447-2.774,2.119   c-6.672-4.236-4.066-13.844-4.555-13.844c-4.724-0.322-3.906-14.492-3.906-14.492"
   id="path83" />
	<path
   fill="#FFFFFF"
   stroke="#FFFFFF"
   stroke-width="0.1352"
   d="M560.06,330.34c0,0-2.445,6.187,0.164,13.512   c0,0.332,0.646,0.164,2.928-2.438c0,0,1.628,1.628,3.909,0.649c2.117-0.975,2.117-3.091,2.117-3.091s3.092,0,4.56-1.303   c1.627-1.629,1.627-4.728,1.627-4.728s2.439-0.975,3.587-2.441c1.629-2.284,1.629-5.868,1.629-5.868s3.751-0.318,5.372-2.764   c1.467-2.604-0.482-5.7-0.482-5.7s5.533-3.096,6.187-6.351c0.164-1.305-0.981-3.421-0.981-3.421s3.909-4.4,3.581-7.493   c-0.322-2.77-2.77-4.398-2.77-4.398s2.447-2.766,2.447-5.54c0-3.088-3.259-4.719-3.259-4.719s0.981-3.259,1.146-5.379   c0-1.789-0.334-4.717-0.334-4.717s1.139-3.424,0.98-5.38c-0.324-1.463-1.628-3.58-1.628-3.58s1.786-3.745,1.628-6.193   c0-1.461-0.811-3.584-0.811-3.584s3.578-3.253,4.393-5.858c0.488-1.953,0.166-5.213,0.166-5.213s2.284-1.63,2.931-3.095   c0.656-1.3,0.496-4.07,0.496-4.07s6.997-4.726,9.442-9.121c2.275-4.236,2.925-12.215,2.925-12.215s-56.016,43.812-30.123,63.682   c0.321,0.322-1.796,7.001-1.796,13.68c0.162,8.144,2.117,16.289,2.117,16.289s-2.768,1.303-3.578,2.771   c-0.488,1.133-0.825,3.42-0.825,3.42s-1.622,0.646-2.27,1.299c-0.656,0.65-1.467,2.115-1.467,2.115s-1.312,0.331-1.798,0.492   c-0.812,0.488-1.462,2.116-1.462,2.116s-2.184,1.048-3.265,2.117c-1.75,1.739-2.764,5.704-2.764,5.704"
   id="path85" />
	<path
   fill="#FFFFFF"
   stroke="#FFFFFF"
   stroke-width="0.1352"
   d="M568.688,345.323c4.067,7.815,10.099,15.146,9.115,14.494   c-5.203-3.092-10.743-14.33-11.235-14.008c-0.973,0.491-1.493-0.091-2.434,0c-0.166,3.911,9.603,22.475,15.955,15.963   c3.742-3.909-7.489-8.143-10.099-16.618C569.991,345.323,568.688,345.155,568.688,345.323"
   id="path87" />
	<path
   fill="#FFFFFF"
   stroke="#FFFFFF"
   stroke-width="0.1352"
   d="M574.712,341.088c6.521,6.674,10.263,12.705,10.099,12.541   c-6.182-3.747-11.073-11.729-11.722-11.566c-0.819,0.492-1.177,0.806-1.791,1.467c1.791,3.746,10.745,17.101,16.607,12.053   c4.07-3.423-8.466-8.307-11.724-14.983C575.534,339.46,574.712,340.921,574.712,341.088"
   id="path89" />
	<path
   fill="#FFFFFF"
   stroke="#FFFFFF"
   stroke-width="0.1352"
   d="M560.378,346.3c1.96,9.446,10.43,18.888,9.613,18.402   c-10.263-5.704-11.396-19.708-12.055-17.099c-0.65,9.771,9.774,27.361,14.496,19.38c2.279-3.91-10.581-11.401-11.073-21.174   C561.359,345.969,560.378,346.3,560.378,346.3"
   id="path91" />
	<path
   fill="#FFFFFF"
   stroke="#FFFFFF"
   stroke-width="0.1352"
   d="M558.757,361.772c0,0-3.42,5.211,2.28,9.936   c1.622,1.139,5.045-4.238,0-6.842c-0.813-0.324,2.114,4.885,0.322,3.906C559.407,367.634,558.757,361.772,558.757,361.772"
   id="path93" />
	<path
   fill="#FFFFFF"
   stroke="#FFFFFF"
   stroke-width="0.1352"
   d="M582.86,336.691c7.979,6.515,10.907,10.912,10.752,10.912   c-7.66-4.726-13.851-11.404-14.5-11.404c-1.631,0.492-1.464,1.364-2.12,2.445c1.959,3.583,17.592,18.402,20.687,10.102   c1.963-5.216-4.562-2.445-13.516-12.386C583.51,335.06,582.86,336.691,582.86,336.691"
   id="path95" />
	<path
   fill="#FFFFFF"
   stroke="#FFFFFF"
   stroke-width="0.1352"
   d="M585.785,327.242c7.172,7.004,13.522,12.219,13.522,12.219   c-11.725-4.564-14.172-10.913-14.656-10.913c-1.634,0.486-1.572,1.347-2.286,2.445c1.966,3.581,18.409,18.235,21.34,9.278   c2.445-7.817-7.49-2.93-16.286-12.865C586.772,326.1,585.785,327.242,585.785,327.242"
   id="path97" />
	<path
   fill="#FFFFFF"
   stroke="#FFFFFF"
   stroke-width="0.1352"
   d="M601.257,325.611c7.171,3.423,6.188,3.751,5.382,3.751   c-7.981-1.631-17.096-8.144-17.433-7.657c-0.645,0.652-0.896,2.237-0.97,3.748c3.089,2.606,14.657,11.238,21.164,4.724   C615.76,323.822,601.257,325.611,601.257,325.611"
   id="path99" />
	<path
   fill="#FFFFFF"
   stroke="#FFFFFF"
   stroke-width="0.1352"
   d="M603.705,314.702c3.422,0.98,9.124,2.607,8.304,2.607   c-10.254,0-18.563-2.77-18.892-2.283c-0.65,0.656-2.278,2.283-3.092,3.748c2.117,3.745,31.596,8.468,23.614-6.512   c-0.16-0.328-2.12,0.811-4.401,1.3C606.639,314.375,603.705,314.702,603.705,314.702"
   id="path101" />
	<path
   fill="#FFFFFF"
   stroke="#FFFFFF"
   stroke-width="0.1352"
   d="M607.775,303.299c3.584,0.328,9.448,1.142,8.632,1.303   c-10.093,1.631-14.818-0.324-22.151,2.12c-1.299,0.488,1.301,1.791,0.168,4.562c3.414,1.789,29.808,0.159,24.917-12.38   c0-0.328-3.42,1.789-5.533,2.767C611.359,302.811,607.775,303.299,607.775,303.299"
   id="path103" />
	<path
   fill="#FFFFFF"
   stroke="#FFFFFF"
   stroke-width="0.1352"
   d="M615.106,291.086c0.653,0.975,5.052,0.975,1.301,2.116   c-9.61,3.096-16.939,3.42-19.22,4.073c-1.297,0.161,0.491,1.3-0.806,4.07c3.575,1.792,26.707-1.142,23.614-12.538   c0-0.163,0.162-0.331-1.958,0.649C615.593,290.597,615.106,291.086,615.106,291.086"
   id="path105" />
	<path
   fill="#FFFFFF"
   stroke="#FFFFFF"
   stroke-width="0.1352"
   d="M618.038,280.988c0.652,0.977-11.888,7.003-20.518,7.167   c-1.306,0-0.652,2.771-1.63,5.54c3.577,1.465,28.662-4.237,25.078-17.267c0-0.166-2.448,2.606-4.886,3.417   C613.479,280.666,618.038,280.988,618.038,280.988"
   id="path107" />
	<path
   fill="#FFFFFF"
   stroke="#FFFFFF"
   stroke-width="0.1352"
   d="M617.877,271.213c0.644,0.979-15.642,8.8-21.986,9.774   c-0.984,0-1.307,3.259,0,4.075c3.577,1.625,31.597-8.146,25.078-20.361c0-0.167-7.489,8.146-25.893,13.519   C593.768,278.545,617.877,271.213,617.877,271.213"
   id="path109" />
	<path
   fill="#FFFFFF"
   stroke="#FFFFFF"
   stroke-width="0.1352"
   d="M617.877,258.998c0.813,1.146-9.777,8.632-21.34,10.916   c-0.98,0.16-2.77,3.253-1.631,4.237c3.751,1.467,33.396-9.449,26.883-21.501c0-0.162-11.405,9.442-24.921,13.193   c-0.486,0-0.653,1.786-0.486,1.786C596.868,268.122,617.877,258.998,617.877,258.998"
   id="path111" />
	<path
   fill="#FFFFFF"
   stroke="#FFFFFF"
   stroke-width="0.1352"
   d="M594.424,263.559c0,0,32.899-7.814,31.76-27.849   c0-0.653-11.732,12.542-30.293,19.873c-0.814,0.322,13.032-3.751,25.078-12.705c0.652-0.328-8.96,9.443-24.92,15.472   c-0.322,0.161-0.158,1.793-0.492,3.256C595.076,263.238,594.424,263.559,594.424,263.559"
   id="path113" />
	<path
   fill="#FFFFFF"
   stroke="#FFFFFF"
   stroke-width="0.1352"
   d="M597.838,252.161c0,0,36.324-18.728,34.044-33.225   c0-0.488-22.644,19.217-30.293,22.798c-0.814,0.331,9.606-4.717,24.431-16.121c0.483-0.326-7.499,10.754-26.712,21.011   C598.823,246.784,597.838,252.161,597.838,252.161"
   id="path115" />
	<path
   fill="#FFFFFF"
   stroke="#FFFFFF"
   stroke-width="0.1352"
   d="M605.504,236.525c0.476-0.978,35.982-22.637,39.25-42.51   c0-0.325-16.452,7.493-30.786,19.873c-0.16,0.161,0.814,1.628,0.158,4.069c-0.158,0.812,16.289-14.332,24.269-16.774   c0.652-0.167-13.35,12.38-23.943,19.22c0,0-0.972,4.72-2.114,7.653C611.037,231.474,605.008,237.017,605.504,236.525"
   id="path117" />
	<path
   fill="#FFFFFF"
   stroke="#FFFFFF"
   stroke-width="0.1352"
   d="M561.526,402.815c0.325,0.16-5.704-10.75-3.42-13.033   c0.489-0.322,3.253,6.682,6.673,8.799c0.488,0.322,1.789,16.936-5.212,4.234C558.757,401.185,558.429,401.185,561.526,402.815"
   id="path119" />
	<path
   fill="#FFFFFF"
   stroke="#FFFFFF"
   stroke-width="0.1352"
   d="M559.567,383.106c0,0-1.631-8.793-0.811-8.793   c0.65,0,5.212,18.076,13.999,23.453c0,0-10.579-18.244-10.418-22.639c0-0.654,0.494,0.977,1.294-0.162   c0.503-0.492,6.037,12.535,13.193,18.402c0.656,0.326,4.729,23.455-13.193,0.326C561.688,391.251,560.06,388.157,559.567,383.106"
   id="path121" />
	<path
   fill="#FFFFFF"
   stroke="#FFFFFF"
   stroke-width="0.1352"
   d="M568.039,377.405c0,0-4.888-6.188,1.63-4.723   c2.111,0.492,6.023,13.684,15.801,18.891c0.151,0-12.714-16.123-12.714-20.68c0-0.652,0.817,0.486,1.634,0   c0.322-0.328,5.54,10.912,13.676,16.125c0.656,0.482,5.38,23.285-13.354,0.809C572.925,385.548,570.152,381.149,568.039,377.405"
   id="path123" />
	<path
   fill="#FFFFFF"
   stroke="#FFFFFF"
   stroke-width="0.1352"
   d="M577.162,371.708c0,0-4.562-4.562,1.95-4.725   c2.284,0,4.397,12.217,16.614,17.266c0,0-7.981-7.656-14.33-19.383c-0.334-0.652,0.969-0.324,1.621-0.977   c0.331-0.326,8.146,11.561,16.29,17.26c0.649,0.328,5.051,19.547-14.497,0.328C582.86,379.519,579.112,374.964,577.162,371.708"
   id="path125" />
	<path
   fill="#FFFFFF"
   stroke="#FFFFFF"
   stroke-width="0.1352"
   d="M583.832,361.281c0,0,3.423,5.703,7.988,10.099   c9.278,9.119,23.126,16.613,18.895,1.303c-0.167-0.324-12.877-6.188-19.39-16.775c-0.161-0.486,0.331,1.303-0.65,1.628   c-0.488,0.166,13.2,15.475,19.062,20.684c0.315,0.16-13.522-6.84-21.832-18.729c-0.16-0.328-0.322,0.164-1.303,0.812   C585.47,360.958,583.832,361.281,583.832,361.281"
   id="path127" />
	<path
   fill="#FFFFFF"
   stroke="#FFFFFF"
   stroke-width="0.1352"
   d="M592.625,353.629c0,0,4.079,5.697,8.964,10.26   c6.353,5.861,24.267,14.49,18.569-0.492c-0.162-0.324-12.547-5.211-19.87-15.311c-0.331-0.324,0.164,1.956-0.82,2.448   c-0.488,0,11.247,12.052,17.92,15.796c0.489,0.164-10.427-2.117-19.709-13.193c-0.324-0.322-0.158,0-1.464,0.491   C594.906,353.952,592.625,353.629,592.625,353.629"
   id="path129" />
	<path
   fill="#FFFFFF"
   stroke="#FFFFFF"
   stroke-width="0.1352"
   d="M601.257,346.623c0,0,3.265,4.395,8.964,8.799   c6.679,5.373,24.753,13.351,18.892-2.283c-0.168-0.322-14.166-4.234-21.985-13.355c-0.166-0.322,0.162,1.139-0.812,1.631   c-0.335,0.164,13.513,11.561,20.027,15.147c0.483,0.164-12.216-3.423-21.334-13.031c-0.16-0.324,0.161,0.814-0.811,1.793   C603.378,346.3,601.257,346.623,601.257,346.623"
   id="path131" />
	<path
   fill="#FFFFFF"
   stroke="#FFFFFF"
   stroke-width="0.1352"
   d="M607.941,337.015c0,0,3.418,4.073,9.446,7.979   c7.165,4.726,25.24,11.73,18.075-3.259c-0.158-0.322-13.514-2.114-22.151-10.425c0-0.318-0.154,0.656-0.975,1.143   c-0.486,0.167,12.708,10.588,19.706,13.684c0.489,0.163-11.725-0.982-21.328-12.381c-0.167-0.324-0.167,0.653-0.978,1.792   C608.923,336.527,607.941,337.015,607.941,337.015"
   id="path133" />
	<path
   fill="#FFFFFF"
   stroke="#FFFFFF"
   stroke-width="0.1352"
   d="M613.312,329.362c0,0,4.727,3.416,11.08,6.512   c7.651,4.069,29.154,6.518,16.611-8.789c-0.164-0.328-11.398,0.975-21.501-6.19c0,0-0.981-0.164-1.625,0.486   c-0.489,0.16,11.728,6.025,23.283,11.562c0.495,0.165-12.858-1.141-23.937-9.12c-0.324-0.164-2.772-0.975-4.066,1.145   C611.851,327.084,613.312,329.362,613.312,329.362"
   id="path135" />
	<path
   fill="#FFFFFF"
   stroke="#FFFFFF"
   stroke-width="0.1352"
   d="M619.341,318.286c0,0,3.587,2.116,10.264,4.726   c7.817,3.417,28.658,2.931,14.977-11.241c0,0-3.578,0.816-7.32,0.978c-4.076,0.161-8.639-0.485-8.959-0.161   c-0.496,0.161,3.741,1.789,15.953,5.699c0.326,0.163-14.162-0.977-26.378-6.352c-0.489-0.164-0.489-0.164-0.328,2.441   C617.877,316.657,619.341,318.286,619.341,318.286"
   id="path137" />
	<path
   fill="#FFFFFF"
   stroke="#FFFFFF"
   stroke-width="0.1352"
   d="M620.802,308.675c0,0,6.844,1.959,14.005,1.795   c8.478,0.324,26.885-6.029,10.431-13.848c0,0-4.398,1.139-9.933,1.953c-3.912,0.492-13.191-0.16-13.191,0.162   c-0.164,1.467,13.836,3.097,25.727,3.587c0.164,0-10.579,3.258-24.751,0.328c-0.495,0-1.14,0-1.3,2.766   C621.789,307.373,620.802,308.675,620.802,308.675"
   id="path139" />
	<path
   fill="#FFFFFF"
   stroke="#FFFFFF"
   stroke-width="0.1352"
   d="M622.928,295.324c0,0,5.212,2.273,13.021,1.139   c12.219-1.467,27.365-7.654,13.029-16.125c-0.482-0.164-15.139,4.557-25.404,3.423c-0.485,0,0.817,1.789-0.321,3.092   c-0.325,0.325,20.191,0,25.726-0.653c0.656,0-13.674,6.029-25.568,3.912c0,0,0.322,1.462,0.164,2.605   C623.41,294.181,622.928,295.324,622.928,295.324"
   id="path141" />
	<path
   fill="#FFFFFF"
   stroke="#FFFFFF"
   stroke-width="0.1352"
   d="M624.231,281.964c0,0,4.881-0.164,12.698-1.141   c12.213-1.625,29.157-9.61,13.847-15.145c-0.327,0-15.472,5.212-25.731,4.073c-0.492,0-0.331,3.096-1.312,4.398   c-0.322,0.321,21.505-1.959,27.044-2.609c0.653,0-13.354,6.679-27.044,5.376c-0.158,0,0.332,1.628,0.332,2.605   C623.732,280.988,624.231,281.964,624.231,281.964"
   id="path143" />
	<path
   fill="#FFFFFF"
   stroke="#FFFFFF"
   stroke-width="0.1352"
   d="M625.208,267.629c0,0,3.257,1.142,12.702-0.647   c12.217-2.117,31.591-13.033,13.678-16.616c-0.158,0-14.494,6.357-24.921,6.193c-0.483,0-0.812,2.116-1.953,3.258   c-0.322,0.49,18.242-1.631,27.196-3.747c0.488-0.164-18.23,6.351-27.032,6.679c-0.325,0,0.167,1.464,0.167,2.606   C624.878,266.822,625.208,267.629,625.208,267.629"
   id="path145" />
	<path
   fill="#FFFFFF"
   stroke="#FFFFFF"
   stroke-width="0.1352"
   d="M626.342,254.931c0,0,38.279-5.052,33.072-20.195   c-0.339-0.978-14.014,7.49-31.769,10.099c-0.322,0,0.16,2.113-1.79,3.256c-0.647,0.162,19.545-4.4,30.134-8.632   c0.484-0.164-9.131,6.349-30.781,12.374C624.553,252,626.342,254.931,626.342,254.931"
   id="path147" />
	<path
   fill="#FFFFFF"
   stroke="#FFFFFF"
   stroke-width="0.1352"
   d="M628.14,242.55c0,0,6.998-0.975,16.936-4.397   c15.961-5.701,37.134-15.961,32.569-25.893c-0.162-0.489-21.655,14.329-46.252,19.541c-0.817,0.158-0.978,1.468-2.928,1.957   c-0.819,0.16,0.812,0.811,0.321,1.789c-0.321,0.486,34.859-11.886,43.002-15.145c0.645-0.328-16.619,8.957-42.676,18.077   C628.622,238.642,628.14,242.55,628.14,242.55"
   id="path149" />
	<path
   fill="#FFFFFF"
   stroke="#FFFFFF"
   stroke-width="0.1352"
   d="M632.21,229.035c0,0,10.418-1.303,25.729-8.96   c16.942-8.304,34.856-19.542,28.994-27.523c-0.168-0.488-2.285,2.767-9.777,5.858c-0.158,0,7.016-2.767,10.752-1.136   c0.488,0.161-10.752,2.932-20.027,6.84c-2.12,0.817-12.711,7.49-33.073,14.822c-0.322,0.164-0.154,2.931-0.645,5.373   C633.51,226.912,632.21,229.035,632.21,229.035"
   id="path151" />
	<path
   fill="#FFFFFF"
   stroke="#FFFFFF"
   stroke-width="0.1352"
   d="M634.807,216.659c0,0,45.607-18.249,60.435-34.37   c22.96-24.915-19.389-7.332-48.383,10.102c0,0-0.315,4.884-1.458,6.352c-0.163,0.488,35.014-21.498,46.744-22.802   c0.482,0-47.563,27.032-48.378,27.524c-0.322,0.161-2.111,3.747-4.229,7.004C637.422,213.724,634.807,216.659,634.807,216.659"
   id="path153" />
	<path
   fill="#FFFFFF"
   stroke="#FFFFFF"
   stroke-width="0.1352"
   d="M442.955,330.34c0,0,3.583,5.7,0.978,13.352   c-0.161,0.492-2.605,0.324-4.89-2.278c-0.158,0-1.625,1.628-3.905,0.649c-2.111-0.975-2.279-3.091-2.279-3.091   s-2.934,0-4.399-1.303c-1.787-1.629-1.629-4.728-1.629-4.728s-2.441-0.975-3.745-2.441c-1.628-2.284-1.461-5.868-1.461-5.868   s-3.912-0.318-5.379-2.764c-1.631-2.604,0.328-5.7,0.328-5.7s-5.376-3.096-6.032-6.351c-0.318-1.305,0.816-3.421,0.816-3.421   s-3.741-4.4-3.419-7.493c0.328-2.77,2.603-4.398,2.603-4.398s-2.274-2.766-2.274-5.54c0-3.088,3.091-4.719,3.091-4.719   s-0.971-3.259-0.971-5.379c-0.164-1.789,0.154-4.717,0.154-4.717s-1.136-3.424-0.811-5.38c0.164-1.463,1.627-3.58,1.627-3.58   s-1.791-3.745-1.627-6.193c0-1.461,0.811-3.584,0.811-3.584s-3.581-3.253-4.392-5.858c-0.492-1.953-0.328-5.213-0.328-5.213   s-2.277-1.63-2.768-3.095c-0.655-1.3-0.491-4.07-0.491-4.07s-7.001-4.726-9.443-9.121c-2.278-4.236-3.091-12.215-3.091-12.215   s56.188,43.812,30.287,63.682c-0.326,0.322,1.628,7.001,1.628,13.68c0,8.144-1.954,16.289-1.954,16.289s2.768,1.303,3.587,2.771   c0.486,1.133,0.648,3.42,0.648,3.42s1.631,0.646,2.281,1.299c0.812,0.65,1.469,2.115,1.469,2.115s1.301,0.331,1.95,0.492   c0.653,0.488,1.464,2.116,1.464,2.116s2.059,1.084,3.099,2.117c1.777,1.764,2.931,5.704,2.931,5.704"
   id="path155" />
	<path
   fill="#FFFFFF"
   stroke="#FFFFFF"
   stroke-width="0.1352"
   d="M433.509,345.323c-4.072,7.815-10.263,15.146-9.12,14.494   c5.048-3.092,11.729-13.848,12.215-13.517c0.814,0.483,0.888-0.325,1.467-0.491c0.162,3.911-9.611,22.475-15.96,15.963   c-3.745-3.909,7.326-8.143,10.096-16.618C432.206,345.323,433.509,345.155,433.509,345.323"
   id="path157" />
	<path
   fill="#FFFFFF"
   stroke="#FFFFFF"
   stroke-width="0.1352"
   d="M427.486,341.088c-6.519,6.674-10.427,12.705-10.267,12.541   c6.193-3.747,12.383-10.752,12.866-10.588c0.981,0.488,0.512,0.281,0.814,0.488c-1.95,3.746-10.747,17.101-16.608,12.053   c-4.237-3.423,8.465-8.307,11.724-14.983C426.506,339.46,427.486,340.921,427.486,341.088"
   id="path159" />
	<path
   fill="#FFFFFF"
   stroke="#FFFFFF"
   stroke-width="0.1352"
   d="M442.469,346.137c-1.795,9.445-11.08,19.051-10.263,18.565   c10.097-5.704,12.377-18.565,13.029-15.957c2.771,5.859-10.748,26.218-15.633,18.238c-2.284-3.91,10.743-11.401,11.238-21.174   C440.841,345.969,442.469,346.137,442.469,346.137"
   id="path161" />
	<path
   fill="#FFFFFF"
   stroke="#FFFFFF"
   stroke-width="0.1352"
   d="M444.583,362.749c0,0,4.234,5.211-3.581,8.959   c-1.793,0.811-5.048-3.588,0.164-6.191c0.65-0.328-0.492,5.213,0,4.885C441.816,369.915,444.583,362.749,444.583,362.749"
   id="path163" />
	<path
   fill="#FFFFFF"
   stroke="#FFFFFF"
   stroke-width="0.1352"
   d="M419.177,336.691c-7.819,6.515-10.75,10.912-10.75,10.912   c7.818-4.726,15.149-10.752,15.636-10.752c1.631,0.49,0.678,1.057,0.979,1.793c-1.795,3.583-17.589,18.402-20.522,10.102   c-1.956-5.216,4.562-2.445,13.355-12.386C418.526,335.06,419.177,336.691,419.177,336.691"
   id="path165" />
	<path
   fill="#FFFFFF"
   stroke="#FFFFFF"
   stroke-width="0.1352"
   d="M416.409,327.242c-7.165,7.004-13.52,12.219-13.52,12.219   c11.563-4.564,15.148-10.099,15.637-10.099c1.627,0.488,0.65,0.86,0.979,1.465c-1.957,3.583-18.242,18.401-21.013,9.444   c-2.605-7.817,7.329-2.93,16.286-12.865C415.432,326.1,416.409,327.242,416.409,327.242"
   id="path167" />
	<path
   fill="#FFFFFF"
   stroke="#FFFFFF"
   stroke-width="0.1352"
   d="M400.935,325.611c-7.329,3.423-6.189,3.751-5.373,3.751   c7.818-1.631,17.103-8.144,17.425-7.657c0.488,0.652,0.898,2.237,0.979,3.748c-3.256,2.606-14.819,11.238-21.173,4.724   C386.44,323.822,400.935,325.611,400.935,325.611"
   id="path169" />
	<path
   fill="#FFFFFF"
   stroke="#FFFFFF"
   stroke-width="0.1352"
   d="M398.492,314.702c-3.42,0.98-9.282,2.607-8.31,2.607   c10.104,0,18.566-2.77,18.897-2.283c0.65,0.656,2.277,2.283,3.092,3.748c-2.277,3.745-31.597,8.468-23.778-6.512   c0.161-0.328,2.117,0.811,4.398,1.3C395.562,314.375,398.492,314.702,398.492,314.702"
   id="path171" />
	<path
   fill="#FFFFFF"
   stroke="#FFFFFF"
   stroke-width="0.1352"
   d="M394.417,303.299c-3.576,0.328-9.604,1.142-8.624,1.303   c9.927,1.631,14.655-0.324,21.984,2.12c1.303,0.488-1.31,1.791,0,4.562c-3.421,1.789-29.811,0.159-25.082-12.38   c0.162-0.328,3.582,1.789,5.698,2.767C390.841,302.811,394.417,303.299,394.417,303.299"
   id="path173" />
	<path
   fill="#FFFFFF"
   stroke="#FFFFFF"
   stroke-width="0.1352"
   d="M387.094,291.086c-0.653,0.975-5.213,0.975-1.301,2.116   c9.604,3.096,16.934,3.42,19.214,4.073c1.307,0.161-0.488,1.3,0.65,4.07c-3.417,1.792-26.543-1.142-23.617-12.538   c0-0.163,0-0.331,2.12,0.649C386.602,290.597,387.094,291.086,387.094,291.086"
   id="path175" />
	<path
   fill="#FFFFFF"
   stroke="#FFFFFF"
   stroke-width="0.1352"
   d="M384.16,280.988c-0.814,0.977,11.893,7.003,20.358,7.167   c1.303,0,0.816,2.771,1.795,5.54c-3.587,1.465-28.832-4.237-25.088-17.267c0-0.166,2.28,2.606,4.729,3.417   C388.555,280.666,384.16,280.988,384.16,280.988"
   id="path177" />
	<path
   fill="#FFFFFF"
   stroke="#FFFFFF"
   stroke-width="0.1352"
   d="M384.32,271.213c-0.814,0.979,16.942,7.985,21.829,10.751   c0.811,0.486,1.303,2.282,0.164,3.099c-3.587,1.625-31.598-8.146-25.088-20.361c0-0.167,7.329,8.146,25.734,13.519   C408.427,278.545,384.32,271.213,384.32,271.213"
   id="path179" />
	<path
   fill="#FFFFFF"
   stroke="#FFFFFF"
   stroke-width="0.1352"
   d="M384.16,258.998c-0.654,1.146,11.237,7.984,21.497,11.894   c1.143,0.489,2.934,3.417,1.631,4.395c-3.584,1.468-33.392-10.584-27.041-22.636c0-0.162,11.566,8.632,25.088,13.193   c0.486,0.161,0.486,1.786,0.486,1.786C405.171,268.122,384.16,258.998,384.16,258.998"
   id="path181" />
	<path
   fill="#FFFFFF"
   stroke="#FFFFFF"
   stroke-width="0.1352"
   d="M407.777,262.909c0,0-33.062-7.164-31.757-27.198   c0-0.653,11.723,12.542,30.293,19.873c0.646,0.322-13.03-3.751-25.246-12.705c-0.492-0.328,9.115,10.26,24.916,16.286   c0.33,0.161-0.162,0.488,0.166,1.956C406.468,262.749,407.777,262.909,407.777,262.909"
   id="path183" />
	<path
   fill="#FFFFFF"
   stroke="#FFFFFF"
   stroke-width="0.1352"
   d="M404.356,252.322c0,0-39.092-20.685-33.712-33.553   c0-0.157,21.169,17.598,28.99,21.179c0.813,0.325-8.632-2.931-23.614-14.335c-0.326-0.326,10.257,10.587,26.706,21.011   c0.163,0,0.163,2.606,0.327,2.932C403.544,251.185,404.356,252.322,404.356,252.322"
   id="path185" />
	<path
   fill="#FFFFFF"
   stroke="#FFFFFF"
   stroke-width="0.1352"
   d="M392.464,232.78c-0.65-0.979-30.455-18.405-35.011-38.765   c-0.161-0.486,16.443,7.493,30.779,19.873c0.161,0.161-0.976,1.628-0.325,4.069c0.325,0.812-16.285-14.332-24.104-16.774   c-0.656-0.167,14.982,12.053,24.429,21.337c0,0,0.322,2.603,1.464,5.536C391.167,231.474,392.792,233.269,392.464,232.78"
   id="path187" />
	<path
   fill="#FFFFFF"
   stroke="#FFFFFF"
   stroke-width="0.1352"
   d="M444.911,396.464c0,0-1.14,4.721-4.237,6.352   c-0.328,0.16,3.909-9.125,3.259-13.033c0-0.486-3.092,6.682-6.679,8.799c-0.486,0.322-3.095,16.936,7.657,4.234   C446.374,401.185,444.911,396.464,444.911,396.464"
   id="path189" />
	<path
   fill="#FFFFFF"
   stroke="#FFFFFF"
   stroke-width="0.1352"
   d="M444.911,383.106c0,0,1.463-9.119-1.468-8.793   c-0.649,0-7.164,18.076-14.007,23.453c-0.328,0.162,8.796-16.289,10.427-22.639c0-0.49-0.328,1.299-1.307,0.16   c-0.486-0.486-6.026,12.213-13.354,18.078c-0.485,0.324-4.721,23.453,13.354,0.324   C440.346,391.251,442.955,386.851,444.911,383.106"
   id="path191" />
	<path
   fill="#FFFFFF"
   stroke="#FFFFFF"
   stroke-width="0.1352"
   d="M434.159,377.405c0,0,4.884-6.188-1.629-4.723   c-2.116,0.492-6.187,13.684-15.957,18.891c0,0,12.702-16.123,12.863-20.68c0-0.652-0.812,0.486-1.626,0   c-0.492-0.328-5.7,10.912-13.682,16.125c-0.812,0.482-5.538,23.285,13.189,0.809C429.275,385.548,432.044,381.149,434.159,377.405"
   id="path193" />
	<path
   fill="#FFFFFF"
   stroke="#FFFFFF"
   stroke-width="0.1352"
   d="M424.877,371.708c0,0,3.909-4.562-0.814-4.074   c-2.277,0.16-6.675,10.096-17.749,16.615c0,0,7.979-7.656,14.494-19.383c0.16-0.652-0.979-0.324-1.631-0.977   c-0.492-0.326-8.144,11.561-16.287,17.26c-0.649,0.328-5.212,19.385,14.17,0.17C419.177,379.358,422.921,374.964,424.877,371.708"
   id="path195" />
	<path
   fill="#FFFFFF"
   stroke="#FFFFFF"
   stroke-width="0.1352"
   d="M418.365,361.281c0,0-3.587,5.703-7.979,10.099   c-9.285,9.119-23.293,16.613-18.897,1.303c0-0.324,12.867-6.188,19.22-16.775c0.324-0.486-0.168,1.303,0.812,1.628   c0.326,0.166-9.938,13.844-16.285,18.079c-0.491,0.326,10.913-4.234,19.217-16.124c0.325-0.328,0,0.164,1.142,0.812   C416.734,360.958,418.365,361.281,418.365,361.281"
   id="path197" />
	<path
   fill="#FFFFFF"
   stroke="#FFFFFF"
   stroke-width="0.1352"
   d="M409.405,353.629c0,0-3.908,5.697-8.957,10.26   c-6.192,5.861-24.107,14.49-18.567-0.492c0.159-0.324,12.536-5.211,19.87-15.311c0.325-0.324,0,1.956,0.976,2.448   c0.327,0-11.399,12.052-18.078,15.796c-0.328,0.164,10.749-2.117,20.03-13.193c0.328-0.322-0.16,0,1.143,0.491   C407.127,353.952,409.405,353.629,409.405,353.629"
   id="path199" />
	<path
   fill="#FFFFFF"
   stroke="#FFFFFF"
   stroke-width="0.1352"
   d="M400.771,346.623c0,0-3.415,3.912-8.957,8.307   c-6.673,5.374-24.596,13.843-18.731-1.791c0-0.322,14.661-4.721,22.479-12.539c0.158-0.164-0.816,0.322,0.158,0.814   c0.495,0.164-13.353,11.561-20.025,15.147c-0.33,0.164,11.562-2.932,21.661-12.709c0.322-0.16-0.33,0.492,0.484,1.471   C398.82,346.3,400.771,346.623,400.771,346.623"
   id="path201" />
	<path
   fill="#FFFFFF"
   stroke="#FFFFFF"
   stroke-width="0.1352"
   d="M395.887,336.691c0,0-4.72,4.397-10.746,8.304   c-7.174,4.726-25.571,11.73-18.406-3.259c0-0.322,13.357-2.114,21.984-10.425c0.167-0.318,0.331,0.656,1.146,1.143   c0.318,0.167-12.869,10.588-19.874,13.684c-0.324,0.163,11.891-1.465,22.151-11.728c0.322-0.325-0.492,0,0.322,1.139   C393.283,336.527,395.887,336.691,395.887,336.691"
   id="path203" />
	<path
   fill="#FFFFFF"
   stroke="#FFFFFF"
   stroke-width="0.1352"
   d="M388.232,328.547c0,0-4.072,4.23-10.585,7.326   c-7.493,4.069-28.99,6.518-16.453-8.789c0-0.328,11.238,0.975,21.337-6.19c0,0,0.975-0.164,1.789,0.486   c0.328,0.16-11.724,6.025-23.286,11.562c-0.489,0.165,14.168-1.303,24.265-8.628c0.324-0.168,2.281-1.467,3.751,0.652   C390.347,327.084,388.232,328.547,388.232,328.547"
   id="path205" />
	<path
   fill="#FFFFFF"
   stroke="#FFFFFF"
   stroke-width="0.1352"
   d="M382.857,318.286c0,0-3.743,2.116-10.261,4.726   c-7.979,3.417-28.829,2.931-14.992-11.241c0,0,3.43,0.816,7.175,0.978c4.072,0.161,8.631-0.485,9.117-0.161   c0.328,0.161-3.742,0.65-15.961,5.699c-0.331,0,14.012-0.977,26.385-6.352c0.492-0.164,0.492-0.164,0.168,2.441   C384.32,316.657,382.857,318.286,382.857,318.286"
   id="path207" />
	<path
   fill="#FFFFFF"
   stroke="#FFFFFF"
   stroke-width="0.1352"
   d="M381.226,308.675c0,0-6.84,1.959-13.841,1.795   c-8.629,0.324-26.874-6.029-10.424-13.848c0,0,4.401,1.139,9.773,1.953c3.91,0.492,13.191-0.16,13.191,0.162   c0.321,1.467-13.844,3.097-25.571,3.587c-0.325,0,11.728,2.441,25.243,1.139c0.649,0,0.649-0.811,0.649,1.955   C380.415,307.373,381.226,308.675,381.226,308.675"
   id="path209" />
	<path
   fill="#FFFFFF"
   stroke="#FFFFFF"
   stroke-width="0.1352"
   d="M379.275,295.324c0,0-5.701,1.952-13.524,0.811   c-12.213-1.467-27.032-7.326-12.532-15.797c0.483-0.164,15.141,4.557,25.407,3.423c0.488,0-0.816,1.789,0.16,3.092   c0.328,0.325-20.194,0-25.734-0.653c-0.483,0,16.938,4.398,25.734,4.727c0.328,0-0.324,0.647-0.324,1.791   C378.626,294.181,379.275,295.324,379.275,295.324"
   id="path211" />
	<path
   fill="#FFFFFF"
   stroke="#FFFFFF"
   stroke-width="0.1352"
   d="M377.967,281.964c0,0-5.042-0.164-12.702-1.141   c-12.377-1.625-29.148-9.61-13.838-15.145c0.322,0,15.472,5.212,25.729,4.073c0.492,0,0.162,3.096,1.307,4.398   c0.324,0.321-21.665-1.959-27.199-2.609c-0.491,0,18.239,5.051,27.031,5.376c0.332,0-0.16,1.628-0.16,2.605   C378.294,280.988,377.967,281.964,377.967,281.964"
   id="path213" />
	<path
   fill="#FFFFFF"
   stroke="#FFFFFF"
   stroke-width="0.1352"
   d="M376.995,267.629c0,0-3.257,1.142-12.869-0.647   c-12.216-2.117-31.433-13.033-13.516-16.616c0.161,0,14.494,6.357,24.918,6.193c0.492,0,0.812,2.116,1.789,3.258   c0.33,0.49-18.239-1.631-27.193-3.747c-0.492-0.164,18.405,6.351,27.193,6.679c0.164,0-0.322,1.464-0.162,2.606   C377.317,266.822,376.995,267.629,376.995,267.629"
   id="path215" />
	<path
   fill="#FFFFFF"
   stroke="#FFFFFF"
   stroke-width="0.1352"
   d="M375.856,254.931c0,0-38.44-4.565-33.229-19.71   c0.325-0.977,14.011,7.005,31.925,9.613c0.163,0-0.167,2.113,1.628,3.256c0.652,0.162-19.542-4.4-29.969-8.632   c-0.489-0.164,8.957,6.349,30.621,12.374C377.647,252,375.856,254.931,375.856,254.931"
   id="path217" />
	<path
   fill="#FFFFFF"
   stroke="#FFFFFF"
   stroke-width="0.1352"
   d="M373.896,242.55c0,0-6.998-1.139-17.1-4.559   c-15.797-5.7-36.967-15.8-32.41-25.731c0.161-0.489,21.825,14.329,46.418,19.541c0.653,0.158,0.979,1.468,2.934,1.957   c0.814,0.16-0.975,0.811-0.328,1.789c0.328,0.486-18.405-4.562-43.32-15.801c-0.491-0.158,17.264,12.383,43.484,19.87   C374.061,239.785,373.896,242.55,373.896,242.55"
   id="path219" />
	<path
   fill="#FFFFFF"
   stroke="#FFFFFF"
   stroke-width="0.1352"
   d="M369.824,229.035c0,0-10.421-1.792-25.732-9.288   c-18.728-9.278-33.874-19.377-28.99-27.195c0.164-0.325,4.89,3.748,11.401,6.351c0.492,0.164-5.697-1.303-8.793,0.486   c-0.163,0,14.336,2.608,16.453,4.237c2.117,1.464,12.86,7.979,33.222,15.311c0.328,0.164,0.164,2.931,0.649,5.373   C368.691,226.912,369.824,229.035,369.824,229.035"
   id="path221" />
	<path
   fill="#FFFFFF"
   stroke="#FFFFFF"
   stroke-width="0.1352"
   d="M367.385,216.659c0,0-45.438-18.249-60.263-34.37   c-23.122-25.403,20.037-5.862,48.86,10.427c0,0-0.321,4.559,0.656,6.026c0.322,0.488-37.14-19.87-46.746-22.802   c-0.489,0,47.712,27.032,48.535,27.524c0.328,0.161,1.956,3.747,4.073,7.004C364.779,213.724,367.385,216.659,367.385,216.659"
   id="path223" />
	<path
   fill="#FFFFFF"
   stroke="#FFFFFF"
   stroke-width="0.1352"
   d="M445.89,422.521c0,0-6.354,4.074-6.354,9.613   c0,0.646,4.723,0,6.354-1.631c0.327-0.492,0-2.932,0-2.932s-1.471,1.465-2.935,1.623c-0.652,0,0.978-4.229,2.771-4.725   C446.217,424.31,445.89,422.521,445.89,422.521"
   id="path225" />
	<path
   fill="#FFFFFF"
   stroke="#FFFFFF"
   stroke-width="0.1352"
   d="M437.096,429.194c0,0-4.89,2.939-4.89,8.469   c0,0.66,4.562,0,6.187-1.623c0.492-0.49-0.322-2.121-0.322-2.121s-2.28,1.307-3.911,2.285c-0.65,0.32,2.281-5.865,4.073-6.193   C438.885,429.851,437.096,429.194,437.096,429.194"
   id="path227" />
	<path
   fill="#FFFFFF"
   stroke="#FFFFFF"
   stroke-width="0.1352"
   d="M434.323,439.948c0,0-3.256,1.461-3.256,7.002   c0,0.648,6.512-1.141,8.96-4.234c0.318-0.488-2.609-0.166-2.609-0.166s-2.767,1.955-4.392,2.934   c-0.496,0.326,1.789-4.561,3.577-5.045C437.096,440.438,434.323,439.948,434.323,439.948"
   id="path229" />
	<path
   fill="#FFFFFF"
   stroke="#FFFFFF"
   stroke-width="0.1352"
   d="M424.225,448.253c0,0-2.768,1.303-2.768,6.84   c0,0.652,8.629-1.143,10.427-5.537c0.16-0.322-2.934-0.486-2.934-0.486s-4.073,3.578-5.704,4.557   c-0.489,0.324,1.795-4.557,3.584-5.049C427.318,448.577,424.225,448.253,424.225,448.253"
   id="path231" />
	<path
   fill="#FFFFFF"
   stroke="#FFFFFF"
   stroke-width="0.1352"
   d="M428.786,437.993c0,0-3.584,1.627-3.584,7.164   c0,0.49,3.423,0.326,5.376-2.607c0.167-0.484-0.653-1.627-0.653-1.627s-1.139,1.627-2.767,2.768   c-0.486,0.164,0.816-4.395,2.767-4.887C430.414,438.642,428.786,437.993,428.786,437.993"
   id="path233" />
	<path
   fill="#FFFFFF"
   stroke="#FFFFFF"
   stroke-width="0.1352"
   d="M441.652,433.759c0,0-2.609,0.652-2.609,6.189   c0,0.646,4.072-0.492,6.847-3.096c0.164-0.164-0.654-2.441-0.654-2.441s-2.608,3.092-4.233,4.066   c-0.492,0.326,0.814-4.395,2.605-4.719C444.258,433.591,441.652,433.759,441.652,433.759"
   id="path235" />
	<path
   fill="#FFFFFF"
   stroke="#FFFFFF"
   stroke-width="0.1352"
   d="M434.815,448.253c0,0-2.285,1.467-2.285,7.004   c0,0.65,2.771,0,5.54-2.768c0.162-0.164-0.491-1.795-0.491-1.795s-1.461,2.119-3.092,3.098c-0.65,0.326,0-3.584,1.792-3.912   C436.768,449.72,434.815,448.253,434.815,448.253"
   id="path237" />
	<path
   fill="#FFFFFF"
   stroke="#FFFFFF"
   stroke-width="0.1352"
   d="M422.11,457.212c0,0-1.465-0.973-2.281,4.23   c-0.164,0.492,2.281,0.82,5.048-1.949c0.325-0.166-0.814,0.484-0.814,0.484s-1.627-0.324-3.255,0.654   c-0.492,0.322,0.649-2.119,2.438-2.611C423.738,458.021,422.11,457.212,422.11,457.212"
   id="path239" />
	<path
   fill="#FFFFFF"
   stroke="#FFFFFF"
   stroke-width="0.1352"
   d="M429.767,455.093c0,0-4.564,4.234-4.564,9.773   c0,0.656,8.474-1.629,10.752-6.516c0-0.33-2.117-0.33-2.117-0.33s-3.587,3.1-5.212,4.076c-0.65,0.326,1.625-4.559,3.419-5.045   C432.694,457.052,429.767,455.093,429.767,455.093"
   id="path241" />
	<path
   fill="#FFFFFF"
   stroke="#FFFFFF"
   stroke-width="0.1352"
   d="M435.954,462.423c0,0-3.748,1.301-5.209,6.514   c-0.167,0.65,6.509,2.281,9.929-1.789c0.167-0.324-0.646-2.121-0.646-2.121s-4.237,1.953-6.19,2.609   c-0.492,0.164,1.953-2.932,4.72-3.912C439.371,463.401,435.954,462.423,435.954,462.423"
   id="path243" />
	<path
   fill="#FFFFFF"
   stroke="#FFFFFF"
   stroke-width="0.1352"
   d="M440.841,451.673c0,0-3.587,3.262-3.587,8.799   c0,0.648,6.025-0.654,8.963-3.42c0.321-0.168-2.609-1.145-2.609-1.145s-2.767,2.113-4.398,3.092   c-0.484,0.166,0.162-3.578,1.957-3.906C441.652,454.935,440.841,451.673,440.841,451.673"
   id="path245" />
	<path
   fill="#FFFFFF"
   stroke="#FFFFFF"
   stroke-width="0.1352"
   d="M445.075,439.62c0,0-6.519,4.561-5.704,10.588   c0.164,0.65,5.048-1.793,7.815-5.375c0.658-1.143-0.486-1.955-0.486-1.955s-3.745,5.699-6.513,6.191   c-0.486,0,4.231-6.842,5.538-7.982C446.866,439.948,445.075,439.62,445.075,439.62"
   id="path247" />
	<path
   fill="#FFFFFF"
   stroke="#FFFFFF"
   stroke-width="0.1352"
   d="M452.891,450.694c0,0-5.376,2.609-4.399,8.799   c0.162,0.484,5.866-1.791,8.472-5.375c0.811-1.143-1.789-0.326-1.789-0.326s-1.631,3.26-5.704,4.398   c-0.324,0,1.956-4.072,3.585-5.701C453.219,452.325,452.891,450.694,452.891,450.694"
   id="path249" />
	<path
   fill="#FFFFFF"
   stroke="#FFFFFF"
   stroke-width="0.1352"
   d="M449.146,446.95c0,0-5.538,1.627-5.538,7.984   c0,0.646,4.398-0.984,7.493-6.033c0.65-0.975-0.328-1.461-0.328-1.461s-3.092,6.027-6.189,6.352c-0.486,0,3.584-5.701,4.887-6.842   S449.146,446.95,449.146,446.95"
   id="path251" />
	<path
   fill="#FFFFFF"
   stroke="#FFFFFF"
   stroke-width="0.1352"
   d="M448.983,461.604c0,0-2.117,1.959-7.495,2.77   c-0.647,0-0.486-2.605,2.608-4.066c0.486-0.33,1.301,0.486,1.301,0.486s-0.979,0.326-2.282,1.791   c-0.16,0.488,4.565-0.322,5.219-2.113C448.334,459.978,448.983,461.604,448.983,461.604"
   id="path253" />
	<path
   fill="#FFFFFF"
   stroke="#FFFFFF"
   stroke-width="0.1352"
   d="M451.59,464.866c0,0-0.981,2.113-6.192,2.609   c-0.486,0-3.095-0.496,0-2.121c0.656-0.16,2.937-0.98,2.937-0.98s-1.147,0.492-2.444,1.959c-0.164,0.646,4.072-1.629,4.719-3.426   C450.772,462.423,451.59,464.866,451.59,464.866"
   id="path255" />
	<path
   fill="#FFFFFF"
   stroke="#FFFFFF"
   stroke-width="0.1352"
   d="M464.455,452.813c0,0-5.05,9.121-11.073,8.791   c-0.817,0-0.655-2.111,0.161-2.768c0.488-0.486,1.631,0,2.934-1.135c0.486-0.49-0.328,1.135-0.328,1.135s3.099-0.646,6.026-5.701   C462.503,452.647,464.455,452.813,464.455,452.813"
   id="path257" />
	<path
   fill="#FFFFFF"
   stroke="#FFFFFF"
   stroke-width="0.1352"
   d="M557.614,421.378c0,0,6.521,3.742,6.837,9.289   c0,0.486-4.556,0.158-6.345-1.307c-0.492-0.486-0.17-2.281-0.17-2.281s2.934,1.633,4.562,1.795c0.488,0-2.771-5.215-4.562-5.703   C557.286,423.171,557.614,421.378,557.614,421.378"
   id="path259" />
	<path
   fill="#FFFFFF"
   stroke="#FFFFFF"
   stroke-width="0.1352"
   d="M566.729,427.405c0,0,5.051,2.771,5.381,8.307   c0,0.652-3.744,0.16-5.542-1.463c-0.322-0.33-0.486-1.957-0.486-1.957s2.284,1.139,4.07,2.119c0.495,0.16-2.275-5.375-4.07-5.699   C565.596,428.712,566.729,427.405,566.729,427.405"
   id="path261" />
	<path
   fill="#FFFFFF"
   stroke="#FFFFFF"
   stroke-width="0.1352"
   d="M570.152,438.153c0,0,3.101,1.303,3.585,6.84   c0,0.654-6.349,1.143-9.44-4.234c-0.162-0.32,2.764,0.164,2.764,0.164s2.931,1.793,4.553,2.768   c0.656,0.164-1.944-4.557-3.736-4.887C567.389,438.804,570.152,438.153,570.152,438.153"
   id="path263" />
	<path
   fill="#FFFFFF"
   stroke="#FFFFFF"
   stroke-width="0.1352"
   d="M580.58,445.978c0,0,2.93,0.973,3.252,6.512   c0,0.646-8.792-0.652-10.907-4.891c0-0.322,3.09-0.648,3.09-0.648s4.075,3.258,5.871,4.232c0.479,0.164-1.956-4.559-3.745-4.719   C577.481,446.464,580.58,445.978,580.58,445.978"
   id="path265" />
	<path
   fill="#FFFFFF"
   stroke="#FFFFFF"
   stroke-width="0.1352"
   d="M575.534,435.872c0,0,3.578,1.471,3.905,7.006   c0,0.654-2.77,0.812-4.728-2.119c-0.322-0.32-1.623-2.928-1.623-2.928s2.604,2.607,4.393,3.578   c0.489,0.164-1.136-4.393-2.928-4.721C574.067,436.688,575.534,435.872,575.534,435.872"
   id="path267" />
	<path
   fill="#FFFFFF"
   stroke="#FFFFFF"
   stroke-width="0.1352"
   d="M562.499,432.292c0,0,2.608,0.654,2.769,6.186   c0.168,0.49-3.908-0.324-6.839-2.928c-0.322-0.164,0.167-1.301,0.167-1.301s3.092,1.791,4.72,2.768   c0.653,0.326-0.978-4.236-2.938-4.564C559.896,432.292,562.499,432.292,562.499,432.292"
   id="path269" />
	<path
   fill="#FFFFFF"
   stroke="#FFFFFF"
   stroke-width="0.1352"
   d="M569.991,446.464c0,0,2.441,1.299,2.765,6.84   c0,0.646-2.765,0-5.695-2.445c-0.331-0.322,0.328-1.957,0.328-1.957s1.628,2.121,3.419,2.936c0.49,0.328-0.327-3.422-2.119-3.746   C568.199,448.091,569.991,446.464,569.991,446.464"
   id="path271" />
	<path
   fill="#FFFFFF"
   stroke="#FFFFFF"
   stroke-width="0.1352"
   d="M583.186,454.612c0,0,1.466-0.82,2.6,4.07   c0.167,0.645-2.437,0.971-5.373-1.631c-0.16,0,0.82,0.16,0.82,0.16s2.441-0.328,4.069,0.65c0.65,0.158-0.491-2.605-2.441-2.928   C582.365,454.935,583.186,454.612,583.186,454.612"
   id="path273" />
	<path
   fill="#FFFFFF"
   stroke="#FFFFFF"
   stroke-width="0.1352"
   d="M575.364,452.813c0,0,4.888,4.238,5.048,9.771   c0.168,0.488-8.632-1.303-10.909-6.018c-0.167-0.328,1.955-0.494,1.955-0.494s3.906,2.926,5.534,3.904   c0.489,0.166-1.952-4.557-3.739-4.885C572.756,455.093,575.364,452.813,575.364,452.813"
   id="path275" />
	<path
   fill="#FFFFFF"
   stroke="#FFFFFF"
   stroke-width="0.1352"
   d="M569.669,460.632c0,0,3.742,0.973,5.54,6.348   c0.155,0.496-6.521,2.445-9.941-1.457c-0.16-0.328,0.49-2.121,0.49-2.121s4.395,1.793,6.187,2.436c0.488,0-0.975-3.902-3.745-4.717   C567.389,460.794,569.669,460.632,569.669,460.632"
   id="path277" />
	<path
   fill="#FFFFFF"
   stroke="#FFFFFF"
   stroke-width="0.1352"
   d="M564.135,450.05c0,0,3.742,3.086,4.064,8.633   c0,0.645-6.022-0.332-9.12-2.938c-0.322-0.164,2.608-1.133,2.608-1.133s2.764,1.789,4.559,2.764   c0.483,0.162-0.328-3.584-2.277-3.908C563.474,453.468,564.135,450.05,564.135,450.05"
   id="path279" />
	<path
   fill="#FFFFFF"
   stroke="#FFFFFF"
   stroke-width="0.1352"
   d="M559.407,438.478c0,0,6.675,4.072,6.188,10.1   c-0.16,0.656-4.236-0.814-7.167-4.23c-0.814-0.979-0.492-2.611-0.492-2.611s4.24,4.074,5.862,5.053   c0.498,0.162-3.253-7.004-4.556-7.984C557.937,437.663,559.407,438.478,559.407,438.478"
   id="path281" />
	<path
   fill="#FFFFFF"
   stroke="#FFFFFF"
   stroke-width="0.1352"
   d="M553.867,451.022c0,0,3.583,1.143,3.097,7.328   c-0.16,0.486-5.706-1.139-8.473-4.559c-0.976-1.145,1.136-0.324,1.136-0.324s3.918,1.953,5.548,2.771   c0.478,0.328-0.98-2.289-2.28-3.426C551.586,451.837,553.867,451.022,553.867,451.022"
   id="path283" />
	<path
   fill="#FFFFFF"
   stroke="#FFFFFF"
   stroke-width="0.1352"
   d="M557.614,446.464c0,0,3.584,0.812,3.912,7.162   c0.161,0.492-2.609,0.986-6.038-3.746c-0.646-0.979,0.164-1.303,0.164-1.303s2.616,1.959,4.243,2.938   c0.482,0.158-1.467-3.752-2.445-5.051C557.123,446.136,557.614,446.464,557.614,446.464"
   id="path285" />
	<path
   fill="#FFFFFF"
   stroke="#FFFFFF"
   stroke-width="0.1352"
   d="M556.476,460.472c0,0,2.12,3.252,7.659,2.436   c0.645-0.156,0.48-2.6-2.775-4.07c-0.489-0.154-0.322,0.162-0.322,0.162s0.161,0.818,1.462,2.121c0.16,0.484-4.562,0-5.376-1.793   C556.964,458.837,556.476,460.472,556.476,460.472"
   id="path287" />
	<path
   fill="#FFFFFF"
   stroke="#FFFFFF"
   stroke-width="0.1352"
   d="M554.033,463.888c0,0,1.142,2.117,6.345,2.277   c0.659,0,3.096-0.643-0.154-2.113c-0.495-0.164-2.938-0.814-2.938-0.814s1.31,0.486,2.609,1.957c0.328,0.488-4.243-1.471-4.89-3.26   C554.842,461.442,554.033,463.888,554.033,463.888"
   id="path289" />
	<path
   fill="#FFFFFF"
   stroke="#FFFFFF"
   stroke-width="0.1352"
   d="M540.673,454.769c0,0,3.912,6.674,9.938,6.186   c0.811-0.16,0.646-2.271-0.164-2.764c-0.484-0.488-3.581-4.072-5.212-4.072c-0.812,0,2.608,4.232,2.608,4.232   s-2.608,1.467-5.868-3.416C541.657,454.446,540.673,454.769,540.673,454.769"
   id="path291" />
	<path
   fill="#FFFFFF"
   stroke="#FFFFFF"
   stroke-width="0.1352"
   d="M471.781,454.612c0,0-0.649,4.553,3.751,6.182   c0.484,0,4.396-0.977,0.976-6.516c-0.328-0.486-0.328,4.721-0.819,6.354c-0.156,0.811-1.947-5.375-1.947-6.02   C473.577,454.118,471.781,454.612,471.781,454.612"
   id="path293" />
	<path
   fill="#FFFFFF"
   stroke="#FFFFFF"
   stroke-width="0.1352"
   d="M479.761,455.093c0,0,0.167,7.98,3.423,8.959   c0.328,0.16,4.567-0.164,2.12-9.439c0-0.494-0.325-0.662-0.981-0.334c-0.811,0.168-0.324,5.375-0.65,7.984   c-0.16,0.975-2.444-6.518-2.602-7.65C481.07,453.626,479.761,455.093,479.761,455.093"
   id="path295" />
	<path
   fill="#FFFFFF"
   stroke="#FFFFFF"
   stroke-width="0.1352"
   d="M487.587,454.769c0,0-1.312,10.426,3.578,10.914   c0.322,0,4.56-1.959,2.278-11.236c-0.167-0.496-0.322-0.168-0.978,0.166c-0.647,0.156-0.168,6.182-1.462,9.439   c-0.322,0.975-1.63-7.979-1.63-8.959C489.21,453.95,487.587,454.769,487.587,454.769"
   id="path297" />
	<path
   fill="#FFFFFF"
   stroke="#FFFFFF"
   stroke-width="0.1352"
   d="M529.11,454.935c0,0-1.14,6.02-5.698,7.488   c-0.331,0-1.789-3.586,2.119-8.473c0.158-0.482-1.64,4.24-1.303,6.027c0.167,0.816,3.581-4.721,3.581-5.365   C527.971,454.118,529.11,454.935,529.11,454.935"
   id="path299" />
	<path
   fill="#FFFFFF"
   stroke="#FFFFFF"
   stroke-width="0.1352"
   d="M521.947,454.612c0,0-0.978,9.111-4.239,9.922   c-0.488,0.17-3.745-0.646-0.973-8.133c0-0.494,0.973,3.416,1.295,6.021c0.173,1.141,1.309-6.678,1.476-7.811   C519.506,453.626,521.947,454.612,521.947,454.612"
   id="path301" />
	<path
   fill="#FFFFFF"
   stroke="#FFFFFF"
   stroke-width="0.1352"
   d="M514.777,454.612c0,0-0.483,11.553-5.371,12.211   c-0.321,0-2.608-2.611-1.791-11.73c0-0.646,0.488-0.324,1.139,0c0.814,0.164,0,7.98,1.471,10.262   c0.482,0.979,1.3-9.115,1.461-10.098C511.846,454.118,514.777,454.612,514.777,454.612"
   id="path303" />
	<path
   fill="#FFFFFF"
   stroke="#FFFFFF"
   stroke-width="0.1352"
   d="M476.017,463.724c0,0-1.143,7.822,2.119,9.121   c0.978,0.322,3.255-2.77,2.28-9.607c0-0.814-0.975,0-0.975,0s0.161,7.174-1.306,8.469c-0.325,0.326-0.814-4.398-0.489-8.143   C477.646,462.907,476.017,463.724,476.017,463.724"
   id="path305" />
	<path
   fill="#FFFFFF"
   stroke="#FFFFFF"
   stroke-width="0.1352"
   d="M482.859,467.147c0,0-1.141,7.979,2.119,9.119   c1.136,0.484,2.274-2.766,1.297-9.611c-0.161-0.818-0.811,0.168-0.811,0.168s0.978,6.842-0.486,8.145   c-0.328,0.158-1.467-4.398-1.631-7.988C483.348,466.333,482.859,467.147,482.859,467.147"
   id="path307" />
	<path
   fill="#FFFFFF"
   stroke="#FFFFFF"
   stroke-width="0.1352"
   d="M488.231,466.979c0,0,0.492,10.912,3.745,12.059   c1.145,0.488,3.42-3.752,2.283-10.592c0-0.811-1.461-0.646-1.461-0.646s0.806,6.838-0.658,8.143   c-0.322,0.164-2.439-5.047-2.114-8.963C490.026,466.501,488.231,466.979,488.231,466.979"
   id="path309" />
	<path
   fill="#FFFFFF"
   stroke="#FFFFFF"
   stroke-width="0.1352"
   d="M496.375,454.612c0,0-1.789,11.553,4.726,14.324   c0.485,0.16,4.553-4.725,5.045-14.002c0-0.984-3.418,0.158-3.9,3.256c0,0.16-0.503,7.164-1.471,9.445   c-0.166,0.65-1.139-7.492-1.472-10.424C499.145,455.907,496.375,454.612,496.375,454.612"
   id="path311" />
	<path
   fill="#FFFFFF"
   stroke="#FFFFFF"
   stroke-width="0.1352"
   d="M496.863,468.126c0,0-2.277,12.861,4.237,15.797   c0.485,0.16,5.045-5.705,5.536-15.148c0-0.811-1.792,1.637-4.239,2.275c-1.133,0.168,0,8.311-1.623,10.594   c-0.491,0.648-2.282-10.426-1.797-11.893c0.167-0.326,0.167,0.66-0.812,0.158C497.033,469.425,496.863,468.126,496.863,468.126"
   id="path313" />
	<path
   fill="#FFFFFF"
   stroke="#FFFFFF"
   stroke-width="0.1352"
   d="M508.104,473.987c-0.928,1.045,0.65,8.793,2.768,2.279   c0.325-1.299,1.146-4.234,2.281-7.492c0.322-1.139-3.096-0.328-3.096,4.727C510.057,473.501,508.625,473.401,508.104,473.987"
   id="path315" />
	<path
   fill="#FFFFFF"
   stroke="#FFFFFF"
   stroke-width="0.1352"
   d="M515.114,471.706c-2.785,0.166-0.82,10.914,2.764,2.281   c0.489-1.143,1.137-4.236,2.271-7.332c0.322-1.133-3.092-0.49-3.092,4.562C517.058,471.384,515.595,471.706,515.114,471.706"
   id="path317" />
	<path
   fill="#FFFFFF"
   stroke="#FFFFFF"
   stroke-width="0.1352"
   d="M521.623,468.446c-1.345,0.561-0.325,10.422,2.922,2.283   c0.498-1.143,0.328-3.75,1.467-7.006c0.337-1.139-2.433-0.16-2.433,4.891C523.579,468.614,522.328,468.157,521.623,468.446"
   id="path319" />
	<path
   fill="#FFFFFF"
   stroke="#000000"
   stroke-width="0.2045"
   d="M533.833,285.549c0,0,4.401-6.026,8.632,11.727   c0.65,2.442,6.19,21.337,16.614-4.073c3.259-7.817-0.322-19.706,9.765-30.294c1.637-1.788,5.868-8.96-7.974-19.541   c-0.975-0.655,19.542-24.599,56.354-43.651c4.076-2.117,2.117-0.65,6.029-21.987c0.157-1.303,20.191-2.281,22.801-18.569   c0.489-3.253-2.609-14.816-1.628-27.846c0.812-11.565-18.57-14.172-14.503,4.556c0.492,2.284,3.917,7.496,5.704,11.566   c0.488,1.467-10.749,14.821-37.301,16.285c-1.139,0-18.236,3.748-0.972,23.618c1.145,1.303-45.432,21.009-57.171,54.887   c-0.315,0.975,0.164,3.419,2.281,4.558c2.12,0.979,6.19,1.469,10.102,5.049c1.301,1.142,4.884,4.073,8.793,2.284   c0.817-0.325-0.161,8.792-7.004,14.169c-2.119,1.628-4.557,7.164-3.252,16.608c0,1.305-1.305,3.751-2.282,4.071   c-0.816,0.492-7.164-23.774-15.961-11.234C532.202,278.545,533.833,285.549,533.833,285.549"
   id="path321" />
	<path
   fill="#FFFFFF"
   stroke="#000000"
   stroke-width="0.3192"
   stroke-miterlimit="3.8637"
   d="M493.604,242.39   c0,0-1.628-9.282,24.104-2.773c6.026,1.471,12.38,8.636,14.98,16.128l-2.438-1.628c2.609,5.048,0.657,16.774,4.071,33.874   l-1.79-0.488c0.49,1.143,4.07,4.726,5.702,9.935l-1.476-0.486c3.914,5.374,3.109,3.095,4.734,8.468c0,0.164-0.82,0.489-2.12-0.485   c0,0,5.05,5.209,7.332,10.585l-2.931-0.816c5.047,3.911,7.483,6.517,8.148,11.398c0,1.142-12.386-0.812-15.977-7.326   c-0.155-0.488-0.476,1.303-0.812,1.628c-0.483,0.328-2.111-0.325-3.414-1.628c-0.496-0.488-0.812,5.54-3.749,7.326   c-0.649,0.328-5.047-2.442-5.864-5.859c-0.159-0.489-1.467,3.581-4.229,4.392c-0.658,0.168-3.584-1.135-5.212-3.902   c-0.337-0.328-2.441,3.416-5.213,3.902c-0.655,0-4.562-0.975-5.867-3.902c-0.328-0.653-2.283,3.584-5.867,4.881   c-0.322,0-3.742-2.113-4.392-4.07c-0.162-0.646-3.746,3.26-9.937,3.092c-0.648,0-1.952-1.463-1.952-3.092   c0-0.646-3.754,3.584-9.288,4.237c-1.139,0-2.608-2.28-2.928-4.237c0-0.646-6.843,4.56-10.749,4.237   c-0.817,0-5.054-10.584,24.587-29.315c8.635-5.376,13.847-6.352,12.872-32.25c0-0.164,1.958,0.989,5.045-0.975   c2.26-0.442,2.123,0.975,3.59-2.284c0.973-1.956-5.534-6.187-5.704-10.419C496.535,244.668,493.604,242.39,493.604,242.39"
   id="path323" />
	<path
   fill="#FFCB0B"
   stroke="#010101"
   stroke-width="0.3178"
   d="M472.438,261.446c0,0,13.838-1.959,19.539,1.792   c3.748,2.605,6.029,0.649,7.001-0.167C499.804,262.259,477.968,250.043,472.438,261.446"
   id="path325" />
	<path
   fill="#FFCB0B"
   stroke="#010101"
   stroke-width="0.3178"
   d="M496.375,260.793c0,0,1.141-2.282-1.301-3.421   c-1.47-0.489-6.19-2.441-5.7-7.007c0.16-3.092-2.604-5.859-2.604-5.859c2.275-4.073,7.325-1.794,7.325-1.794   s2.439,2.933,2.768,7.822c0.331,5.702,6.841,7.815,5.534,10.911C500.283,265.843,496.375,260.793,496.375,260.793"
   id="path327" />
	<path
   fill="none"
   stroke="#000000"
   stroke-width="0.3192"
   stroke-miterlimit="3.8637"
   d="M531.558,318.774   c0,0-3.259-2.77-6.026-7.004 M512.329,320.73c0,0-1.786-2.935-2.601-7.335 M534.492,302.811c0-0.322,0.642,0.816-4.404,4.728   c-0.164,0.158-3.739-2.937-6.509-9.613 M529.28,306.883c-0.17-0.322-0.17,2.441-5.218,6.354c-0.171,0.158-2.926-1.953-5.695-8.635    M528.943,284.083c-0.161-0.164-0.973,7.657-6.02,11.728c-0.164,0.163-1.954-1.305-2.932-8.633 M519.178,295.484   c0-0.324-0.811,4.562-5.703,8.632c-0.159,0.162-2.604-0.33-5.213-7.007 M501.425,320.73c0,0,2.448-2.935,3.909-5.212    M491.004,321.38c0,0,4.721-3.749,5.859-5.862 M479.274,321.705c0,0,5.537-4.233,7.979-7.651 M466.897,321.38   c0,0,4.884-2.932,5.701-4.891"
   id="path329" />
	<path
   fill="#010101"
   stroke="#010101"
   stroke-width="0.1829"
   d="M498.328,245.807c0,0,0.494-2.929,6.845,0   c3.581,1.633,5.856-3.095,12.705-0.322c0.805,0.322-8.793,0-8.31,2.117c0.16,0.65,6.351-1.795,10.749,2.605   c0,0-9.61-3.098-9.774-0.652c-0.318,3.419-7.165,4.884-8.801,0.652c0-0.328-2.604,0.158-3.25,0.327   c-0.486,0.159,1.627-1.305,2.608-1.305c0.975,0,0.642-0.492,1.467-2.446C503.218,245.324,498.328,245.807,498.328,245.807    M494.096,252c0,0-0.491-2.281-2.277-2.937c-1.137-0.325,0.479-2.279,1.786-0.65C494.907,249.879,494.096,252,494.096,252"
   id="path331" />
	<path
   fill="#FFFFFF"
   d="M504.356,247.11c0,0,0.816,1.628,0.488,3.256c-0.16,0.328,0.973,0.328,1.465,0   c0.819-0.486,1.306-2.926,1.306-2.926c1.47-1.147,4.562,4.231-1.47,4.231C500.774,251.511,502.728,246.948,504.356,247.11"
   id="path333" />
	<path
   fill="none"
   stroke="#000000"
   stroke-width="0.3192"
   stroke-miterlimit="3.8637"
   d="M535.791,318.938   c0,0,1.951-4.885,1.951-11.399 M521.947,320.559c0,0,1.944-3.25,2.598-7.65"
   id="path335" />
	<path
   fill="#FFFFFF"
   stroke="#000000"
   stroke-width="0.2045"
   d="M404.843,189.948c50.653,26.871,57.164,50.976,57.164,52.278   c0.332,2.442,0,4.722-2.277,6.026c-3.745,2.113-3.417,0.652-7.487,3.419c-4.728,3.26-7.984,3.42-7.495,3.912   c10.095,8.465,11.565,18.567,11.565,17.265c1.14-39.258,48.372-19.22,33.062,1.46c-8.632,11.891-2.771,18.895-4.234,19.711   c-10.424,6.026-14.008,9.608-14.008,9.608c-8.143-22.476,8.143-24.104,10.096-39.74c1.956-15.635-13.517-7.164-13.517,2.278   c0,19.548-4.722,20.198-9.445,22.8c-9.612,5.54-10.585-8.142-17.264-14.657c-20.849-20.359,1.953-25.729,0-28.016   c-21.659-26.868-48.046-39.897-56.514-41.525c-14.986-3.095-12.219-21.986-12.219-21.986s-23.773-5.537-20.682-22.151   c1.464-7.979,0.65-11.237,0.161-22.317c-0.652-15.797,23.945-19.05,16.447,0c-0.979,2.447-5.534,7.657-5.859,13.844   c0,1.956,6.022,8.635,37.298,12.058c6.349,0.814,12.213,7.329,11.562,13.191C410.541,183.591,403.054,189.131,404.843,189.948"
   id="path337" />
	<path
   fill="#FFCB0B"
   stroke="#010101"
   stroke-width="0.3178"
   d="M495.074,257.373c-1.47-0.489-6.19-2.441-5.7-7.007   c0.16-3.092-2.604-5.859-2.604-5.859c-0.328,0.817-20.522-3.419-15.475,20.195c0,0,0.319-15.308,25.079-3.908   C496.375,260.793,497.516,258.511,495.074,257.373"
   id="path339" />
	<path
   fill="none"
   stroke="#231F20"
   stroke-width="0.228"
   stroke-miterlimit="3.8637"
   d="M635.627,148.252   c0,0,7.979-8.471,8.799-18.895 M372.107,183.269c0,0,0.162-8.312,1.467-10.912 M404.679,189.62c0,0-11.56-6.028-18.725-7.331   c-7.168-1.464-12.544-4.884-12.708-7.977c-0.164-2.937,2.282-7.332,11.73-3.258c9.607,4.069,7.487,7.001,18.077,9.445   c9.933,2.113,8.632-4.56,8.144-5.862 M363.312,154.112c0,0-10.587-5.048-10.91-20.522 M369.502,130.333   c0,0-4.884,11.729-8.957,1.306c0,0-2.77,14.496-4.562,15.636 M445.075,255.255c0,0-8.796-4.89-11.891-0.816 M441.166,246.624   c2.767,3.584,1.137,6.841,5.372,8.144 M456.477,273.008c0,0-1.303,15.469-6.354,15.146 M548.821,288.965   c0,0,11.402,13.197,12.049-4.558 M561.526,254.277c0,0,9.604-2.766,9.281,3.423 M560.87,243.04c0,0-10.587,14.169,0.656,11.237    M620.969,167.469c0,0,12.383,3.096-23.614,20.195 M623.253,177.729c0,0,4.714-16.938-11.244-7.976   c-1.788,0.976-19.384,14.33-21.983,0 M629.44,130.011c0,0,3.583,9.445,8.47,1.139c0,0,0.32,3.745,2.442,10.424"
   id="path341" />
	<path
   fill="#010101"
   d="M380.289,193.375c1.751,0.465,1.979,0.77,2.049,2.831l0.328,0.073l1.09-5.133l-0.326-0.067   c-0.907,1.851-1.235,2.038-3.024,1.754l0.747-3.528c0.164-0.785,0.305-0.899,0.858-0.768l1.317,0.311   c2.4,0.577,2.085,2.688,2.129,3.238l0.305,0.064l0.679-3.186l-8.705-1.848l-0.066,0.322c0.804,0.17,1.159,0.776,0.983,1.578   l-1.535,7.224c-0.166,0.799-0.74,1.212-1.54,1.039l-0.07,0.325l8.808,1.874l1.353-3.03l-0.412-0.088   c-1.564,1.985-2.893,2.412-5.062,1.757c-0.771-0.229-0.816-0.463-0.647-1.251"
   id="path343" />
	<path
   fill="#010101"
   d="M398.328,195.333c0.337-0.679,0.817-0.34,1.095-0.222c0.814,0.33,1.008,0.945,0.92,1.695   c-0.097,0.846-0.424,1.599-1.013,2.22c-0.876,0.939-2.019,0.436-2.831,0.072 M396.268,199.552l1.223,0.592   c1.075,0.523,1.977,0.682,2.797,0.521c1.801-0.361,2.258-2.013,2.231-2.923c-0.059-1.499-1.25-2.322-2.553-2.96l-4.516-2.202   l-0.146,0.296c0.738,0.359,0.94,1.036,0.576,1.769l-3.237,6.641c-0.36,0.732-1.011,0.998-1.742,0.636l-0.149,0.298l4.573,2.231   l0.144-0.304c-0.735-0.354-0.938-1.031-0.577-1.767L396.268,199.552z"
   id="path345" />
	<path
   fill="#010101"
   d="M418.652,207.248c0.434-0.697,1.086-0.905,1.774-0.469l0.182-0.284l-2.661-1.657l-0.174,0.278   c0.694,0.436,0.791,1.109,0.361,1.804l-3.022,4.834c-1.614,2.579-3.795,1.291-4.521,0.46c-0.837-0.952-0.357-2.155,0.253-3.143   l3.012-4.819c0.437-0.693,1.113-0.885,1.804-0.454l0.18-0.277l-4.311-2.697l-0.18,0.281c0.692,0.434,0.823,1.121,0.388,1.818   l-3.297,5.273c-0.598,0.961-0.647,3.086,1.561,4.636c2.126,1.472,4.169,1.586,5.653-0.788 M407.874,207.022   c-1.786,1.44-2.958,1.892-5.119,0.693c-0.512-0.284-0.918-0.998-0.585-1.599l3.611-6.518c0.392-0.718,1.062-0.943,1.774-0.545   l0.163-0.286l-4.448-2.469l-0.16,0.287c0.711,0.4,0.88,1.083,0.479,1.798l-3.584,6.456c-0.396,0.718-1.057,0.946-1.774,0.547   l-0.16,0.293l7.876,4.366l2.286-2.822"
   id="path347" />
	<path
   fill="#010101"
   d="M423.519,210.076c0.26-0.334,0.639-0.278,0.901-0.108c1.008,0.627,1.113,1.367,1.011,2.006   c-0.076,0.46-0.809,1.568-1.481,2.023c-1.236,0.813-2.305-0.267-2.925-0.729 M420.505,219.837l2.445,1.906l0.205-0.257   c-0.146-0.117-0.322-0.149-0.272-0.932l0.337-5.29c0.905,0.402,1.695,0.537,2.598,0.225c1.105-0.393,1.596-1.631,1.496-2.551   c-0.141-1.206-1.222-2.351-2.19-3.106l-3.877-3.021l-0.198,0.258c0.646,0.503,0.699,1.206,0.195,1.853l-4.55,5.815   c-0.507,0.646-1.194,0.765-1.84,0.261l-0.204,0.261l4.008,3.133l0.202-0.261c-0.645-0.506-0.693-1.206-0.189-1.851l2.05-2.62   l0.305,0.243L420.505,219.837z"
   id="path349" />
	<path
   fill="#010101"
   d="M431.319,217.244c0.559-0.594,1.259-0.656,2.008,0.04l0.226-0.239l-4.018-3.751l-0.226,0.243   c0.745,0.699,0.738,1.4,0.183,2.003l-5.043,5.398c-0.553,0.602-1.256,0.659-2.002-0.04l-0.223,0.242l4.014,3.749l0.229-0.247   c-0.751-0.692-0.744-1.396-0.185-1.997"
   id="path351" />
	<path
   fill="#010101"
   d="M432.64,223.726l0.705,0.7c0.756,0.755,0.955,1.622-0.758,3.338c-1.139,1.137-2.059,0.814-2.853-0.067   c-0.503-0.568-0.237-0.834,0.388-1.458 M435.585,220.774c0.441-0.436,0.662-0.392,1.101,0c0.788,0.724,0.946,1.324,0.106,2.159   l-0.894,0.89c-1.042,1.051-1.854,0.524-2.392-0.008l-0.478-0.478L435.585,220.774z M430.112,228.724   c0.647,0.645,1.336,1.069,2.729,1.235c1.188,0.141,3.06-1.08,2.717-2.875c-0.135-0.645-0.412-1.3-0.726-1.836l0.025-0.021   c0.779,0.465,2.161,1.09,3.361-0.091c0.835-0.814,0.732-1.982,0.279-2.837c-0.414-0.773-1.45-1.807-2.041-2.396l-2.68-2.685   l-0.231,0.234c0.574,0.576,0.545,1.279-0.038,1.858l-5.218,5.225c-0.579,0.574-1.282,0.612-1.865,0.029l-0.228,0.237   L430.112,228.724z"
   id="path353" />
	<path
   fill="#010101"
   d="M599.949,192.827c-0.467-0.776-0.223-1.587,0.705-2.146l-0.191-0.31l-4.456,2.676l0.577,9.085l-7.565-4.887   l-4.524,2.721l0.19,0.312c1.146-0.688,1.745-0.743,2.392,0.328l4.179,6.96c0.46,0.776,0.258,1.567-0.67,2.129l0.193,0.311   l3.554-2.135l-0.19-0.319c-0.928,0.562-1.722,0.372-2.195-0.404l-4.384-7.302l9.716,6.245l0.43-0.255l-0.775-11.58l4.366,7.271   c0.463,0.775,0.225,1.59-0.703,2.149l0.188,0.315l5.777-3.475l-0.188-0.313c-0.929,0.559-1.757,0.396-2.229-0.387 M584.201,202.509   c-0.516-0.74-0.406-1.52,0.414-2.087l-0.215-0.299l-3.119,2.178l0.209,0.305c0.816-0.57,1.587-0.409,2.1,0.328l3.612,5.159   c1.922,2.747-0.553,4.57-1.806,5.021c-1.441,0.516-2.478-0.474-3.219-1.528l-3.602-5.139c-0.521-0.743-0.381-1.543,0.434-2.111   l-0.204-0.298l-5.066,3.546l0.213,0.295c0.818-0.568,1.614-0.43,2.136,0.311l3.933,5.628c0.729,1.028,2.96,1.921,5.727,0.176   c2.646-1.689,3.801-3.833,2.035-6.372 M580.021,218.016l-6.542-7.791c-0.583-0.691-0.545-1.476,0.217-2.111l-0.234-0.283   l-2.913,2.447l0.237,0.278c0.764-0.636,1.544-0.542,2.123,0.151l3.646,4.341l-0.029,0.025l-9.897-1.499l-3.077,2.579l0.231,0.281   c0.398-0.334,0.778-0.176,1.166-0.122l1.053,0.146l5.26,6.269c0.579,0.694,0.541,1.479-0.221,2.115l0.231,0.28l2.926-2.441   l-0.237-0.281c-0.767,0.635-1.546,0.544-2.126-0.152l-4.729-5.631l0.029-0.023l12.459,1.777 M563.207,219.009   c-0.612-0.662-0.612-1.443,0.117-2.126l-0.246-0.267l-2.787,2.598l0.251,0.267c0.727-0.68,1.512-0.624,2.126,0.034l4.29,4.604   c2.296,2.454,0.088,4.609-1.089,5.227c-1.351,0.709-2.513-0.123-3.399-1.065l-4.281-4.589c-0.612-0.659-0.58-1.467,0.144-2.148   l-0.249-0.268l-4.515,4.214l0.246,0.267c0.729-0.68,1.534-0.65,2.151,0.012l4.691,5.024c0.846,0.913,3.188,1.487,5.686-0.626   c2.393-2.042,3.235-4.325,1.128-6.592 M452.021,238.024l-0.227-0.287c-0.374,0.053-0.597,0.182-0.752-0.015   c-0.469-0.63-0.27-1.303-1.303-2.618c-0.811-1.042-2.694-1.73-4.378-0.412c-0.767,0.597-1.507,1.877-1.065,3.773   c0.646,2.751,0.594,3.447-0.123,4.016c-0.298,0.228-1.435,0.975-2.697-0.639c-0.89-1.142-0.261-2.969,0.109-3.499l0.665-0.937   l-0.227-0.291l-3.017,2.36l0.238,0.296c0.261-0.149,0.489-0.24,0.604-0.091c0.468,0.595,0.661,1.716,1.227,2.439   c2.091,2.679,4.181,1.748,5.054,1.071c1.186-0.934,1.558-2.562,0.735-4.998c-0.583-1.739-0.144-2.483,0.397-2.911   c0.302-0.231,1.392-0.726,2.246,0.37c1.286,1.669,0.018,3.443-0.41,4.257l0.193,0.243 M445.563,232.542   c0.621-0.539,1.303-0.544,1.84,0.07l0.248-0.214l-2.055-2.368l-0.25,0.219c0.536,0.621,0.439,1.292-0.181,1.831l-4.305,3.738   c-2.295,1.994-4.002,0.123-4.46-0.881c-0.518-1.15,0.288-2.167,1.166-2.935l4.289-3.728c0.619-0.539,1.32-0.518,1.859,0.097   l0.246-0.217l-3.332-3.838l-0.251,0.217c0.532,0.621,0.453,1.317-0.164,1.851l-4.697,4.081c-0.852,0.747-1.52,2.762,0.135,4.888   c1.602,2.037,3.528,2.737,5.645,0.896"
   id="path355" />
	<path
   fill="#FFFFFF"
   stroke="#000000"
   stroke-width="6.15"
   d="M463.472,451.183h-8.462c-8.956-2.113-8.31-10.424-8.31-10.424   v-75.078v-38.924h108.788v38.924v75.078c0,0,0.665,8.311-8.298,10.424h-8.306h-33.551c0,0-1.596,0.748-2.442,1.465   c-0.827,0.705-1.791,2.121-1.791,2.121s-0.981-1.633-1.798-2.279c-0.811-0.652-2.439-1.307-2.439-1.307"
   id="path357" />
	<rect
   x="446.653"
   y="326.43"
   fill="#223164"
   width="108.844"
   height="38.844"
   id="rect359"
   style="fill:#002768;fill-opacity:1" />
	<rect
   x="505.264"
   y="365.271"
   fill="#EE3324"
   width="8.369"
   height="85.869"
   id="rect361"
   style="fill:#be0a2f;fill-opacity:1" />
	<rect
   x="513.633"
   y="365.271"
   fill="#FFFFFF"
   width="8.38"
   height="85.869"
   id="rect363" />
	<rect
   x="522.006"
   y="365.271"
   fill="#EE3324"
   width="8.372"
   height="85.869"
   id="rect365"
   style="fill:#be0a2f;fill-opacity:1" />
	<rect
   x="530.378"
   y="365.271"
   fill="#FFFFFF"
   width="8.381"
   height="85.869"
   id="rect367" />
	<path
   fill="#EE3324"
   d="M488.513,451.14h8.374v-85.869h-8.374V451.14z M538.759,451.14h8.367v-85.869h-8.367V451.14z"
   id="path369"
   style="fill:#be0a2f;fill-opacity:1" />
	<rect
   x="480.142"
   y="365.271"
   fill="#FFFFFF"
   width="8.38"
   height="85.869"
   id="rect371" />
	<rect
   x="471.773"
   y="365.271"
   fill="#EE3324"
   width="8.368"
   height="85.869"
   id="rect373"
   style="fill:#be0a2f;fill-opacity:1" />
	<rect
   x="463.394"
   y="365.271"
   fill="#FFFFFF"
   width="8.38"
   height="85.869"
   id="rect375" />
	<rect
   x="455.024"
   y="365.271"
   fill="#EE3324"
   width="8.369"
   height="85.869"
   id="rect377"
   style="fill:#be0a2f;fill-opacity:1" />
	<path
   fill="#FFFFFF"
   d="M524.399,135.056l-2.12,7.171h-7.332l5.865,4.559l-2.12,6.837l5.707-3.905l5.697,3.905l-2.117-6.837   l6.185-4.559h-7.496 M477.33,135.056l-1.955,7.171h-7.493l6.028,4.559l-2.277,6.837l5.697-3.905l5.702,3.905l-2.115-6.837   l6.185-4.559h-7.49 M536.283,115.189l-1.952,7.168h-7.323l5.861,4.559l-2.125,6.837l5.539-3.905l5.866,3.905l-2.111-6.837   l6.017-4.559h-7.319 M512.997,115.189l-1.959,7.168h-7.489l6.028,4.559l-2.114,6.837l5.534-3.905l5.868,3.905l-2.284-6.837   l6.188-4.559h-7.323 M489.711,115.189l-1.959,7.168h-7.493l6.025,4.559l-2.113,6.837l5.54-3.905l5.861,3.905l-2.287-6.837   l6.196-4.559h-7.495 M466.421,115.189l-1.956,7.168h-7.493l6.026,4.559l-2.117,6.837l5.54-3.905l5.859,3.905l-2.281-6.837   l6.187-4.559h-7.487 M536.283,154.112l-1.952,7.332h-7.323l5.861,4.559l-2.125,6.677l5.539-3.746l5.866,3.746l-2.111-6.677   l6.017-4.559h-7.319 M512.997,154.112l-1.959,7.332h-7.489l6.028,4.559l-2.114,6.677l5.534-3.746l5.868,3.746l-2.284-6.677   l6.188-4.559h-7.323 M489.711,154.112l-1.959,7.332h-7.493l6.025,4.559l-2.113,6.677l5.54-3.746l5.861,3.746l-2.287-6.677   l6.196-4.559h-7.495 M466.421,154.112l-1.956,7.332h-7.493l6.026,4.559l-2.117,6.677l5.54-3.746l5.859,3.746l-2.281-6.677   l6.187-4.559h-7.487 M501.109,173.657l-2.122,7.331h-7.327l5.864,4.398l-2.119,6.84l5.704-3.909l5.697,3.909l-2.113-6.84   l6.022-4.398h-7.329 M501.109,135.056l-2.122,7.171h-7.327l5.864,4.559l-2.119,6.837l5.704-3.905l5.697,3.905l-2.113-6.837   l6.022-4.559h-7.329 M501.109,96.297l-2.122,7.326h-7.327l5.864,4.398l-2.119,6.843l5.704-3.91l5.697,3.91l-2.113-6.843   l6.022-4.398h-7.329 M455.019,365.271h-8.31v75.488c0,0-0.646,8.311,8.31,10.424 M501.109,454.769c0,0-0.981-1.633-1.798-2.279   c-0.811-0.652-2.439-1.307-2.439-1.307v-85.912h8.472v85.912c0,0-1.597,0.748-2.443,1.465   C502.073,453.353,501.109,454.769,501.109,454.769 M547.199,365.271h8.298v75.488c0,0,0.665,8.311-8.298,10.424"
   id="path379" />
	<path
   fill="#5F9E44"
   stroke="#057C49"
   stroke-width="0.4584"
   d="M322.767,385.147c0-2.57,2.088-4.656,4.659-4.656   c2.576,0,4.661,2.086,4.661,4.656c0,2.576-2.085,4.664-4.661,4.664C324.854,389.812,322.767,387.724,322.767,385.147"
   id="path381" />
	<path
   fill="#5F9E44"
   stroke="#057C49"
   stroke-width="0.4584"
   d="M346.936,425.979c0-3.145,2.551-5.701,5.697-5.701   c3.143,0,5.698,2.557,5.698,5.701c0,3.141-2.556,5.697-5.698,5.697C349.486,431.677,346.936,429.12,346.936,425.979"
   id="path383" />
	<path
   fill="#5F9E44"
   stroke="#057C49"
   stroke-width="0.4584"
   d="M407.288,529.685c4.069,0.488,17.265-32.404-41.692-77.359   c-2.934-2.117,1.622-15.473,23.29-21.5c13.841-3.906,10.096-14.166,19.381-21.174c0,0-13.683-4.395-26.546,6.844   c0,0,2.928-8.475,1.303-14.66c-1.143-4.557,1.789-8.791,3.254-9.445c0,0-22.966-4.725-27.36,53.91   c0,0.812-16.45-8.307-2.771-25.896c0.65-0.98,5.534-11.074,4.237-24.1c-0.492-5.869-3.092-8.639-0.814-16.289   c0,0-11.729,14.492-14.174,19.377c-7.654,14.654-4.724,26.717-1.789,34.367c0,0-8.469-8.793-6.844-24.596   c0-0.814-1.953-1.787-2.6-1.143c-0.656,0.66-1.143,7.824,0,10.754c0,0-6.682-7-1.143-14.66c0.65-0.975,12.053-5.373,11.402-26.867   c0-1.307,0.161-14.174,2.931-18.084c0,0-19.38,6.188-18.405,25.245c0.158,3.42,3.098,14.01-1.306,21.014   c0,0-3.578-11.242-1.947-15.473c0.158-0.816-0.662-1.305-1.309-1.305c0,0-2.117,1.791-2.117,3.906c0,0-6.189-6.676,5.048-22.148   c0.656-0.811,7.168-8.629,4.397-26.872c-0.161-1.794-2.608-8.304,1.465-14.168c0,0-10.418,2.117-12.699,13.844   c0,0-1.631-6.679-4.884-10.752c-0.495-0.814-2.779-3.581-2.287-8.956c0,0-10.743,7.167-7.651,30.782c0,0-7.004-5.376-10.751-7.168   c-3.582-1.625-5.21-2.117-7.487-6.677c0,0-5.215,33.714,26.867,43.158c0.814,0.328,0.168,3.094,1.957,6.189   c0,0-4.396-5.375-15.64-6.352c-2.111-0.158-6.184-1.299-10.907-7.49c0,0-5.379,13.191,9.118,20.846c0,0-9.279,2.117-15.63-2.607   c0,0,3.092,24.434,37.131,21.5c0.489,0,11.729,0.652,11.729,9.939c0,0.162-8.96-3.912-21.176-2.609   c-0.978,0.162-18.241,0.814-20.851-3.586c0,0-0.322,10.588,10.266,13.029c0,0-4.4,4.564-13.521,4.564   c0,0,9.451,14.006,40.231,4.393c0.814-0.322,14.327-10.742,23.451,3.584c0,0-22.151,3.26-30.947,14.006   c-1.789,2.121-2.928,7.166-14.002,12.385c0,0,11.074,5.537,25.891,0.488c0,0-9.766,11.236-3.414,30.297   c0,0,3.908-7.826,13.193-12.549c2.765-1.467,9.769-8.955,11.721-24.916c0.164-2.281,4.073-8.959,15.472-2.441   c11.405,6.674,36.319,31.762,34.367,53.254C402.076,522.026,401.102,528.874,407.288,529.685"
   id="path385" />
	<path
   fill="none"
   stroke="#057C49"
   stroke-width="0.575"
   stroke-miterlimit="3.8637"
   d="M362.662,446.95   c0,0,2.77-27.85,16.452-48.047 M366.573,441.573c0,0,17.747-24.098,33.062-28.666 M381.721,416.495c0,0-0.817,6.676-16.456,26.055"
   id="path387" />
	<path
   fill="#5F9E44"
   stroke="#057C49"
   stroke-width="0.4584"
   d="M355.997,436.593c0-3.145,2.551-5.691,5.704-5.691   c3.139,0,5.689,2.547,5.689,5.691c0,3.148-2.551,5.697-5.689,5.697C358.548,442.29,355.997,439.741,355.997,436.593"
   id="path389" />
	<path
   fill="#5F9E44"
   stroke="#057C49"
   stroke-width="0.4584"
   d="M360.059,446.694c0-3.289,2.662-5.955,5.953-5.955   c3.288,0,5.952,2.666,5.952,5.955c0,3.291-2.664,5.959-5.952,5.959C362.721,452.653,360.059,449.985,360.059,446.694"
   id="path391" />
	<path
   fill="none"
   stroke="#057C49"
   stroke-width="0.575"
   stroke-miterlimit="3.8637"
   d="M355.818,389.948   c-0.813,1.625-16.61,21.498-5.861,50.326"
   id="path393" />
	<path
   fill="#5F9E44"
   stroke="#057C49"
   stroke-width="0.4584"
   d="M334.163,421.228c0-3.096,2.512-5.607,5.61-5.607   c3.101,0,5.607,2.512,5.607,5.607c0,3.098-2.507,5.615-5.607,5.615S334.163,424.325,334.163,421.228"
   id="path395" />
	<path
   fill="none"
   stroke="#057C49"
   stroke-width="0.575"
   stroke-miterlimit="3.8637"
   d="M340.836,368.612   c-0.646,1.629-5.537,6.352-4.233,18.73c1.139,12.375-4.888,17.426-6.837,19.053"
   id="path397" />
	<path
   fill="#5F9E44"
   stroke="#057C49"
   stroke-width="0.4584"
   d="M329.238,406.642c0-3.047,2.477-5.525,5.525-5.525   c3.057,0,5.525,2.479,5.525,5.525c0,3.051-2.469,5.525-5.525,5.525C331.715,412.167,329.238,409.692,329.238,406.642"
   id="path399" />
	<path
   fill="none"
   stroke="#057C49"
   stroke-width="0.575"
   stroke-miterlimit="3.8637"
   d="M305.658,354.28   c0,0,10.749,8.631,8.469,23.778 M290.673,349.065c0.492,2.12,3.256,9.121,11.077,14.008c7.817,4.887,9.773,10.752,10.748,15.635    M321.783,354.444c0.325-1.792,0.647-9.121,5.376-15.636 M320.316,343.206c0.164,0.979,2.928,11.885,0.813,21.336   c-2.113,9.445-4.069,16.119-2.605,21.824"
   id="path401" />
	<path
   fill="#5F9E44"
   stroke="#057C49"
   stroke-width="0.4584"
   d="M306.367,377.595c0-3.027,2.451-5.48,5.479-5.48   s5.479,2.453,5.479,5.48c0,3.025-2.451,5.482-5.479,5.482S306.367,380.62,306.367,377.595"
   id="path403" />
	<path
   fill="none"
   stroke="#057C49"
   stroke-width="0.575"
   stroke-miterlimit="3.8637"
   d="M295.071,385.712   c4.069,3.906,9.448,9.936,19.544,12.053 M298.329,396.946c4.398-0.324,21.823-1.627,28.502,13.684 M314.287,371.708   c0,0,0.814-14.006-1.622-21.173c-2.608-7.165-2.937-8.799-0.98-17.103"
   id="path405" />
	<path
   fill="#5F9E44"
   stroke="#057C49"
   stroke-width="0.4584"
   d="M308.007,397.321c0-2.859,2.316-5.18,5.177-5.18   s5.183,2.32,5.183,5.18s-2.319,5.178-5.183,5.178C310.328,402.499,308.007,400.181,308.007,397.321"
   id="path407" />
	<path
   fill="none"
   stroke="#057C49"
   stroke-width="0.575"
   stroke-miterlimit="3.8637"
   d="M294.093,401.999   c5.54,3.75,20.522-1.793,34.527,13.029 M315.921,389.296c1.301,2.605,6.349,5.211,7.979,13.029"
   id="path409" />
	<path
   fill="#5F9E44"
   stroke="#057C49"
   stroke-width="0.4584"
   d="M306.021,404.481c0-2.906,2.356-5.266,5.262-5.266   c2.91,0,5.268,2.359,5.268,5.266c0,2.912-2.357,5.27-5.268,5.27C308.378,409.751,306.021,407.394,306.021,404.481"
   id="path411" />
	<path
   fill="none"
   stroke="#057C49"
   stroke-width="0.575"
   stroke-miterlimit="3.8637"
   d="M300.446,437.831   c4.559,1.137,14.009-10.26,32.896-3.912 M300.118,432.78c6.683-3.42,20.034-13.027,41.371,2.281"
   id="path413" />
	<path
   fill="#5F9E44"
   stroke="#057C49"
   stroke-width="0.4584"
   d="M326.05,437.192c0-3,2.43-5.432,5.435-5.432   c3.004,0,5.439,2.432,5.439,5.432c0,3.01-2.436,5.447-5.439,5.447C328.479,442.64,326.05,440.202,326.05,437.192"
   id="path415" />
	<path
   fill="none"
   stroke="#057C49"
   stroke-width="0.575"
   stroke-miterlimit="3.8637"
   d="M315.921,468.446   c7.815-1.623,9.774-15.799,40.551-18.727"
   id="path417" />
	<path
   fill="#5F9E44"
   stroke="#057C49"
   stroke-width="0.4584"
   d="M331.227,452.999c0-3.102,2.512-5.613,5.612-5.613   c3.099,0,5.61,2.512,5.61,5.613c0,3.092-2.512,5.609-5.61,5.609C333.738,458.608,331.227,456.091,331.227,452.999"
   id="path419" />
	<path
   fill="#5F9E44"
   stroke="#057C49"
   stroke-width="0.4584"
   d="M338.392,448.249c0-3.098,2.515-5.609,5.615-5.609   c3.096,0,5.607,2.512,5.607,5.609s-2.512,5.607-5.607,5.607C340.906,453.856,338.392,451.347,338.392,448.249"
   id="path421" />
	<path
   fill="none"
   stroke="#057C49"
   stroke-width="0.575"
   stroke-miterlimit="3.8637"
   d="M331.388,472.032   c12.704-4.068,14.824-22.963,28.668-19.385c0,0-14.333,5.373-21.173,21.34c-6.837,15.961-4.397,10.912-7.168,16.777"
   id="path423" />
	<path
   fill="#5F9E44"
   stroke="#057C49"
   stroke-width="0.4584"
   d="M317.757,417.435c0-3.053,2.475-5.527,5.528-5.527   c3.052,0,5.522,2.475,5.522,5.527s-2.471,5.521-5.522,5.521C320.231,422.956,317.757,420.487,317.757,417.435"
   id="path425" />
	<polygon
   fill="#FFFFFF"
   stroke="#010101"
   stroke-width="0.2276"
   points="725.368,328.383 705.332,343.692 712.825,344.505    668.04,411.118 670.644,412.907 715.437,345.969 719.51,351.998  "
   id="polygon427" />
	<polygon
   fill="#FFFFFF"
   stroke="#010101"
   stroke-width="0.2276"
   points="725.368,352.652 703.868,366.167 711.528,367.47    674.714,413.235 676.997,415.353 713.964,369.259 717.227,375.614  "
   id="polygon429" />
	<polygon
   fill="#FFFFFF"
   stroke="#010101"
   stroke-width="0.2276"
   points="701.099,330.012 683.026,347.603 690.678,347.44    667.39,393.204 669.829,395.161 693.447,348.579 698,354.116  "
   id="polygon431" />
	<polygon
   fill="#FFFFFF"
   stroke="#010101"
   stroke-width="0.2276"
   points="698.331,350.695 679.606,367.634 687.415,367.634    670.811,396.786 673.091,398.741 689.86,368.937 694.425,374.638  "
   id="polygon433" />
	<polygon
   fill="#FFFFFF"
   stroke="#010101"
   stroke-width="0.2276"
   points="727.652,372.847 705.01,384.249 712.506,386.526    667.545,431.806 669.179,434.411 714.787,388.321 717.551,394.997  "
   id="polygon435" />
	<polygon
   fill="#FFFFFF"
   stroke="#010101"
   stroke-width="0.2276"
   points="678.787,353.629 662.178,372.519 669.829,371.868    627.806,471.706 630.253,473.501 672.593,372.683 677.809,377.729  "
   id="polygon437" />
	<polygon
   fill="#FFFFFF"
   stroke="#010101"
   stroke-width="0.2276"
   points="679.117,379.519 661.194,397.278 669.015,397.118    627.967,471.706 630.253,473.665 671.788,398.253 676.512,403.628  "
   id="polygon439" />
	<polygon
   fill="#FFFFFF"
   stroke="#010101"
   stroke-width="0.2276"
   points="702.079,386.366 680.742,399.878 688.558,401.349    628.14,471.546 630.093,473.987 691.006,402.976 694.425,409.329  "
   id="polygon441" />
	<polygon
   fill="#FFFFFF"
   stroke="#010101"
   stroke-width="0.2276"
   points="658.762,375.45 644.255,395.972 651.91,394.507    626.184,471.218 628.786,472.845 654.844,395.161 660.22,399.718  "
   id="polygon443" />
	<polygon
   fill="#FFFFFF"
   stroke="#010101"
   stroke-width="0.2276"
   points="679.764,397.278 660.062,413.403 667.88,413.892    627.806,471.384 630.093,473.665 670.481,415.192 674.553,421.218  "
   id="polygon445" />
	<polygon
   fill="#FFFFFF"
   stroke="#010101"
   stroke-width="0.2276"
   points="717.062,408.681 693.286,417.31 700.448,420.567    630.253,474.151 631.554,476.921 702.568,422.685 704.527,429.688  "
   id="polygon447" />
	<polygon
   fill="#FFFFFF"
   stroke="#010101"
   stroke-width="0.2276"
   points="644.426,384.085 632.695,406.56 640.024,403.95    626.825,471.05 629.44,472.192 643.122,404.114 648.979,408.188  "
   id="polygon449" />
	<polygon
   fill="#FFFFFF"
   stroke="#010101"
   stroke-width="0.2276"
   points="684.484,420.728 662.018,432.452 669.501,434.571    628.944,473.337 631.718,474.312 671.788,436.524 674.553,443.204  "
   id="polygon451" />
	<polyline
   fill="#FFFFFF"
   stroke="#010101"
   stroke-width="0.2276"
   points="627.646,468.446 607.444,488.806 598.979,488.642    567.711,517.954 576.015,518.124 572.925,521.714 578.301,523.011 577.481,524.476 580.412,526.269 578.787,531.485    588.722,530.987 590.839,531.968 592.795,537.837 599.957,536.36 598.979,538.647 602.56,540.114 603.705,537.505 605.979,541.089    612.337,537.997 614.614,539.948 617.549,538.808 622.762,542.231 629.44,505.097 624.878,498.747 629.762,470.569  "
   id="polyline453" />
	<path
   fill="#FFFFFF"
   stroke="#000000"
   stroke-width="0.228"
   stroke-miterlimit="3.8637"
   d="M610.221,501.351l8.14-3.91   l4.893-10.104l-3.426-1.623L610.221,501.351z M617.224,538.808l7.654-39.896 M612.659,537.997l10.751-44.469 M605.979,541.089   l3.918-17.43 M603.705,537.669l21.503-48.863 M599.957,536.526l23.296-49.344 M580.252,526.269l3.744,4.889l12.386-13.203    M592.957,537.669l17.264-36.48 M588.236,530.987l28.499-44.947 M591.164,532.3l33.714-54.893 M580.252,526.269l44.793-49.348    M607.611,492.226l-29.311,30.943 M607.444,488.806l-3.739,3.42 M575.692,518.124l26.385-25.898h5.534l16.941-18.074"
   id="path455" />
	<path
   fill="#FEE354"
   stroke="#010101"
   stroke-width="0.4551"
   d="M376.181,473.501c0,0-1.795-16.777-15.964-9.289   c-1.947,0.982-12.049,6.518-0.161,16.453c0.812,0.648-7.817,12.705,8.957,13.846c1.47,0,7.492,11.395,12.868,2.441   c0.814-1.309,4.885-1.143,3.26-6.188c-0.492-1.795,1.3-10.428-7.007-9.451C376.833,481.478,382.207,477.243,376.181,473.501"
   id="path457" />
	<path
   fill="#FEE354"
   stroke="#010101"
   stroke-width="0.4551"
   d="M633.023,472.685c0,0,0-14.664,13.353-9.283   c2.12,0.811,11.887,5.213,0,15.145c-0.812,0.652,7.979,12.711-8.954,13.68c-1.473,0.164-7.499,11.566-12.869,2.441   c-0.82-1.297-4.726-1.139-3.253-6.025c0.489-1.789-1.304-10.424,7.165-9.443C629.604,479.36,624.878,474.638,633.023,472.685"
   id="path459" />
	<path
   fill="#FFFFFF"
   stroke="#010101"
   stroke-width="0.4551"
   d="M627.806,468.446c0,0,2.932-2.924,7.168-3.742   c4.564-0.816,8.148,0.65,6.682,3.91c-0.816,1.955-3.098,0.811-6.351,0.322C630.907,468.126,627.806,468.446,627.806,468.446"
   id="path461" />
	<path
   fill="#FFFFFF"
   stroke="#010101"
   stroke-width="0.4551"
   d="M627.001,468.446c0,0,4.881,1.305,7.001,4.721   c2.608,4.076-0.817,5.871-1.631,5.701c-1.464-0.154-2.278-0.154-2.931-3.254C628.465,471.218,627.001,468.446,627.001,468.446"
   id="path463" />
	<path
   fill="#FFFFFF"
   stroke="#010101"
   stroke-width="0.4551"
   d="M619.996,475.286c0,0-2.447,6.027,0.484,8.797   c3.414,3.426,5.861,0.486,6.022-0.324c0-1.303,0.164-2.281-2.771-3.582C619.827,478.378,619.996,475.286,619.996,475.286"
   id="path465" />
	<path
   fill="none"
   stroke="#010101"
   stroke-width="0.456"
   stroke-miterlimit="3.8637"
   d="M631.882,482.456   c0,0,10.102,0.492,5.379,10.092 M628.465,478.868c0,0,4.72,2.283,3.745,7.01 M624.064,494.343c0,0,5.376,0.496,5.376-4.234    M633.185,472.685c0,0,6.19-2.115,6.84,5.047 M611.52,463.073c0,0-1.467,2.932-0.16,5.213 M609.737,478.378   c0,0,0.315-3.41,3.742-4.227"
   id="path467" />
	<path
   fill="#FFFFFF"
   stroke="#010101"
   stroke-width="0.4551"
   d="M377.481,468.126c0,0-3.585-2.443-7.657-2.443   c-4.72,0-7.979,1.953-6.021,4.887c0.976,1.787,3.256,0.326,6.187-0.818C374.225,468.446,377.481,468.126,377.481,468.126"
   id="path469" />
	<path
   fill="#FFFFFF"
   stroke="#010101"
   stroke-width="0.4551"
   d="M379.437,470.569c0,0-4.884,1.303-7.004,4.885   c-2.608,3.906,0.813,5.697,1.628,5.697c1.468-0.324,2.28-0.164,2.935-3.42C377.967,473.337,379.437,470.569,379.437,470.569"
   id="path471" />
	<path
   fill="#FFFFFF"
   stroke="#010101"
   stroke-width="0.4551"
   d="M386.44,477.407c0,0,2.445,6.023-0.486,8.791   c-3.423,3.422-5.862,0.49-6.028-0.32c0-1.309-0.161-2.281,2.77-3.586C386.766,480.501,386.44,477.407,386.44,477.407"
   id="path473" />
	<path
   fill="#FFFFFF"
   stroke="#010101"
   stroke-width="0.4551"
   d="M382.857,471.706c0,0,4.072-5.051,1.955-8.633   c-1.955-4.391-5.215-2.279-5.698-1.469c-0.166,1.146-0.82,2.283,1.628,4.232C383.996,468.614,382.857,471.706,382.857,471.706"
   id="path475" />
	<path
   fill="none"
   stroke="#010101"
   stroke-width="0.456"
   stroke-miterlimit="3.8637"
   d="M382.367,496.464   c0,0-5.372,0.648-5.372-4.238 M367.06,476.921c0,0-9.124-1.307-5.865,6.51 M373.246,474.798c0,0-6.187-1.953-6.837,5.211"
   id="path477" />
	<path
   fill="none"
   stroke="#010101"
   stroke-width="0.456"
   stroke-miterlimit="3.8637"
   d="M378.134,481.151   c0,0-4.888,2.117-3.909,6.844"
   id="path479" />
	<path
   fill="none"
   stroke="#010101"
   stroke-width="0.456"
   stroke-miterlimit="3.8637"
   d="M622.434,452.001   c-1.134-0.818-12.381,3.906-7.165,12.865c0.98,1.789,4.395,2.609,7.003,2.77 M639.375,474.798c0,0,9.287-1.297,5.862,6.516    M394.912,465.354c0,0,1.467,2.771,0.16,5.057 M374.553,484.569c0,0-10.099,0.498-5.377,10.098"
   id="path481" />
	<path
   fill="#FFFFFF"
   stroke="#010101"
   stroke-width="0.4551"
   d="M625.37,472.479c0,0-7.493-3.865-7.172-7.945   c-0.16-4.881,3.751-4.391,4.396-3.902c0.816,0.973,2.41,1.953,0.659,4.559C621.499,467.8,625.37,472.479,625.37,472.479"
   id="path483" />
</g>
</svg>